<svg xmlns="http://www.w3.org/2000/svg" width="584" height="366" viewBox="0 0 584 366" fill="none"><g clip-path="url(#clip0_519_2536)"><path d="M324.561 364.849L318.184 362.164L313.809 330.196H255.553L250.812 362.034L245.106 364.886C244.833 365.023 244.614 365.247 244.485 365.524C244.356 365.8 244.324 366.112 244.394 366.409C244.464 366.706 244.632 366.971 244.871 367.16C245.111 367.35 245.407 367.453 245.712 367.453H324.035C324.348 367.453 324.651 367.345 324.893 367.147C325.135 366.949 325.301 366.673 325.363 366.366C325.425 366.06 325.379 365.741 325.233 365.465C325.086 365.188 324.849 364.971 324.561 364.849Z" fill="#E4E4E4"></path><path d="M428.241 334.449H142.073C140.571 334.446 139.133 333.847 138.072 332.784C137.012 331.722 136.416 330.281 136.416 328.78V288.427H433.898V328.78C433.898 330.281 433.302 331.722 432.242 332.784C431.181 333.847 429.743 334.446 428.241 334.449Z" fill="#E4E4E4"></path><path d="M434.021 307.498H135.979V134.834C135.981 133.022 136.701 131.285 137.983 130.004C139.264 128.723 141.001 128.002 142.813 128H427.186C428.998 128.002 430.735 128.723 432.017 130.004C433.298 131.285 434.019 133.022 434.021 134.834V307.498Z" fill="#49576B"></path><path d="M416.362 294.967H153.921C152.524 294.965 151.185 294.41 150.197 293.422C149.21 292.434 148.654 291.095 148.652 289.698V145.801C148.654 144.404 149.21 143.065 150.197 142.077C151.185 141.089 152.524 140.533 153.921 140.532H416.362C417.759 140.533 419.098 141.089 420.086 142.077C421.074 143.065 421.629 144.404 421.631 145.801V289.698C421.629 291.095 421.074 292.434 420.086 293.422C419.098 294.41 417.759 294.965 416.362 294.967Z" fill="white"></path><path d="M277 67H21V198.282H277V67Z" fill="#EBEDEF"></path><path d="M272.624 71.376H25.376V193.906H272.624V71.376Z" fill="white"></path><path d="M241.427 175.308H60.9496C60.7998 175.308 60.6561 175.248 60.5502 175.142C60.4443 175.037 60.3848 174.893 60.3848 174.744V88.3503C60.3848 88.2007 60.4443 88.0573 60.5502 87.9515C60.6561 87.8457 60.7998 87.7863 60.9496 87.7863C61.0994 87.7863 61.243 87.8457 61.349 87.9515C61.4549 88.0573 61.5144 88.2007 61.5144 88.3503V174.179H241.427C241.577 174.179 241.72 174.239 241.826 174.345C241.932 174.45 241.992 174.594 241.992 174.744C241.992 174.893 241.932 175.037 241.826 175.142C241.72 175.248 241.577 175.308 241.427 175.308Z" fill="#CCCCCC"></path><path d="M83.9355 168.203H100.286L100.287 168.203M83.9355 168.203L101.957 167.049C101.956 167.499 101.78 167.929 101.467 168.247C101.154 168.564 100.73 168.743 100.287 168.744V168.203M83.9355 168.203C83.9352 168.203 83.935 168.203 83.9348 168.203C83.6379 168.203 83.3516 168.083 83.1392 167.867C82.9265 167.652 82.8054 167.357 82.805 167.049V144.182C82.8054 143.873 82.9265 143.579 83.1392 143.363C83.3517 143.148 83.6381 143.028 83.9352 143.028H100.286C100.583 143.028 100.87 143.148 101.082 143.363C101.295 143.579 101.416 143.873 101.417 144.181M83.9355 168.203L83.9348 168.744L101.417 144.181M100.287 168.203C100.584 168.203 100.87 168.083 101.082 167.867C101.295 167.652 101.416 167.358 101.417 167.049C101.417 167.049 101.417 167.049 101.417 167.049M100.287 168.203L101.417 167.049M101.417 167.049V144.182L101.417 144.181M101.417 167.049L101.467 142.984C101.78 143.302 101.956 143.732 101.957 144.181H101.417" stroke="#3F3D56" stroke-width="1.08068"></path><path d="M113.475 168.203H129.825C130.126 168.203 130.413 168.084 130.625 167.873C130.837 167.663 130.955 167.378 130.956 167.081C130.956 167.081 130.956 167.081 130.956 167.081M113.475 168.203L131.496 167.081L130.956 167.081M113.475 168.203C113.174 168.203 112.886 168.084 112.675 167.873L112.295 168.254L112.675 167.873C112.463 167.663 112.344 167.378 112.344 167.081V123.363C112.344 123.067 112.463 122.782 112.675 122.571C112.886 122.361 113.174 122.242 113.474 122.241H129.826C130.126 122.242 130.413 122.361 130.625 122.571C130.837 122.782 130.955 123.067 130.956 123.363M113.475 168.203L130.956 123.363M130.956 167.081V123.364M130.956 167.081V123.364M130.956 123.364L130.956 123.363M130.956 123.364L130.956 123.363" stroke="#CCCCCC" stroke-width="1.08068"></path><path d="M159.364 168.744H143.012C142.569 168.743 142.145 168.564 141.832 168.247C141.518 167.929 141.342 167.499 141.342 167.049V144.181C141.342 143.732 141.518 143.302 141.832 142.984C142.145 142.666 142.569 142.488 143.012 142.487H159.364C159.807 142.488 160.231 142.666 160.544 142.984C160.857 143.302 161.034 143.732 161.034 144.181V167.049C161.034 167.499 160.857 167.929 160.544 168.247C160.231 168.564 159.807 168.743 159.364 168.744Z" fill="#04B0EA"></path><path d="M189.997 168.743H173.645C173.212 168.753 172.793 168.59 172.48 168.29C172.167 167.991 171.985 167.58 171.975 167.146V114.546C171.985 114.113 172.167 113.701 172.48 113.402C172.793 113.103 173.212 112.94 173.645 112.949H189.997C190.429 112.94 190.848 113.103 191.161 113.402C191.474 113.701 191.656 114.113 191.667 114.546V167.146C191.656 167.58 191.474 167.991 191.161 168.29C190.848 168.59 190.429 168.753 189.997 168.743Z" fill="#EBEDEF"></path><path d="M219.535 168.744H203.183C202.74 168.743 202.316 168.566 202.002 168.252C201.689 167.938 201.513 167.513 201.513 167.068V99.3077C201.513 98.8636 201.689 98.4377 202.002 98.1237C202.316 97.8096 202.74 97.633 203.183 97.6325H219.535C219.978 97.633 220.402 97.8096 220.715 98.1237C221.028 98.4377 221.204 98.8636 221.205 99.3077V167.068C221.204 167.513 221.028 167.938 220.715 168.252C220.402 168.566 219.978 168.743 219.535 168.744Z" fill="#EBEDEF"></path><path d="M92.1112 135.923C93.9238 135.923 95.3932 134.454 95.3932 132.641C95.3932 130.828 93.9238 129.359 92.1112 129.359C90.2985 129.359 88.8291 130.828 88.8291 132.641C88.8291 134.454 90.2985 135.923 92.1112 135.923Z" fill="#EBEDEF"></path><path d="M121.649 114.043C123.462 114.043 124.931 112.573 124.931 110.761C124.931 108.948 123.462 107.479 121.649 107.479C119.837 107.479 118.367 108.948 118.367 110.761C118.367 112.573 119.837 114.043 121.649 114.043Z" fill="#EBEDEF"></path><path d="M151.188 135.923C153.001 135.923 154.47 134.454 154.47 132.641C154.47 130.828 153.001 129.359 151.188 129.359C149.376 129.359 147.906 130.828 147.906 132.641C147.906 134.454 149.376 135.923 151.188 135.923Z" fill="#EBEDEF"></path><path d="M151.322 133.735L121.304 111.335L91.694 133.429L91.0166 132.528L121.304 109.928L151.18 132.222L180.869 99.8551L180.988 99.8068L210.936 87.7863L211.358 88.8304L181.529 100.803L151.322 133.735Z" fill="#EBEDEF"></path><path d="M181.82 103.103C183.633 103.103 185.102 101.633 185.102 99.8205C185.102 98.0079 183.633 96.5385 181.82 96.5385C180.008 96.5385 178.538 98.0079 178.538 99.8205C178.538 101.633 180.008 103.103 181.82 103.103Z" fill="#04B0EA"></path><path d="M211.359 91.0684C213.172 91.0684 214.641 89.5989 214.641 87.7863C214.641 85.9737 213.172 84.5043 211.359 84.5043C209.547 84.5043 208.077 85.9737 208.077 87.7863C208.077 89.5989 209.547 91.0684 211.359 91.0684Z" fill="#04B0EA"></path><path d="M539.996 61H395V171.773H539.996V61Z" fill="#EBEDEF"></path><path d="M532.792 66.5043H402.205V166.269H532.792V66.5043Z" fill="white"></path><path d="M469.843 140.504C469.826 140.505 469.809 140.505 469.791 140.505L469.797 140.005M469.843 140.504L469.797 140.005M469.843 140.504C478.683 140.041 487.014 136.229 493.144 129.843C499.273 123.457 502.74 114.976 502.839 106.125C502.938 97.2737 499.662 88.7171 493.678 82.195C487.693 75.673 479.449 71.6753 470.622 71.0148L469.843 140.504ZM469.797 140.005C469.804 140.005 469.811 140.005 469.817 140.004L469.817 140.004C478.53 139.549 486.742 135.792 492.783 129.497C498.824 123.202 502.241 114.843 502.339 106.119C502.437 97.3952 499.208 88.9615 493.309 82.5331C487.411 76.1047 479.285 72.1644 470.585 71.5134L470.583 71.5133C470.543 71.5101 470.502 71.5153 470.464 71.5286C470.425 71.5419 470.39 71.563 470.36 71.5905L470.358 71.5929L470.358 71.5929C470.328 71.6194 470.305 71.6518 470.289 71.6878C470.273 71.7239 470.264 71.7628 470.264 71.8023L470.264 71.8043L470.264 71.8043L469.503 139.705C469.503 139.705 469.503 139.705 469.503 139.706C469.502 139.784 469.533 139.86 469.588 139.916C469.643 139.972 469.718 140.004 469.797 140.005Z" fill="white" stroke="#49576B"></path><path d="M442.486 82.243C442.757 82.2463 443.016 82.3568 443.206 82.5503L466.581 106.456C466.675 106.552 466.75 106.665 466.799 106.79C466.849 106.914 466.874 107.047 466.872 107.181L466.508 139.673C466.507 139.812 466.477 139.95 466.42 140.077C466.364 140.205 466.281 140.319 466.178 140.413C466.075 140.508 465.953 140.58 465.82 140.627C465.687 140.673 465.547 140.691 465.407 140.68C458.907 140.194 452.672 137.905 447.402 134.07C442.132 130.235 438.036 125.006 435.574 118.972C433.112 112.937 432.382 106.335 433.465 99.9083C434.549 93.4814 437.403 87.4839 441.707 82.5898C441.8 82.4843 441.914 82.3991 442.042 82.3395C442.169 82.2799 442.307 82.2471 442.448 82.2432C442.461 82.2429 442.473 82.2428 442.486 82.243Z" fill="#EBEDEF"></path><path d="M466.256 70.7373C466.517 70.7405 466.767 70.8426 466.955 71.0231C467.057 71.1194 467.137 71.2355 467.191 71.3642C467.245 71.4929 467.272 71.6314 467.269 71.771L466.941 101.087C466.939 101.289 466.876 101.485 466.762 101.652C466.648 101.818 466.487 101.947 466.3 102.023C466.113 102.098 465.907 102.116 465.71 102.074C465.512 102.033 465.332 101.933 465.19 101.789L444.792 80.9282C444.695 80.829 444.619 80.7111 444.57 80.5817C444.52 80.4523 444.497 80.3142 444.502 80.1756C444.507 80.037 444.54 79.9009 444.599 79.7756C444.659 79.6503 444.743 79.5383 444.847 79.4465C450.78 74.2246 458.3 71.1566 466.193 70.7385C466.214 70.7375 466.235 70.7371 466.256 70.7373Z" fill="#04B0EA"></path><path d="M455.748 154.585C455.734 155.822 455.354 157.027 454.655 158.048C453.956 159.068 452.971 159.859 451.823 160.319C450.675 160.78 449.416 160.889 448.206 160.635C446.996 160.38 445.888 159.772 445.024 158.887C444.159 158.003 443.576 156.882 443.348 155.667C443.12 154.451 443.258 153.195 443.744 152.058C444.23 150.92 445.043 149.953 446.079 149.277C447.115 148.602 448.328 148.248 449.565 148.262C451.223 148.283 452.805 148.96 453.964 150.145C455.123 151.331 455.764 152.928 455.748 154.585Z" fill="#04B0EA"></path><path d="M473.113 154.78C473.1 155.918 472.75 157.027 472.108 157.966C471.465 158.905 470.558 159.632 469.502 160.055C468.446 160.479 467.288 160.58 466.174 160.346C465.061 160.111 464.042 159.552 463.246 158.738C462.451 157.925 461.914 156.893 461.705 155.775C461.495 154.656 461.622 153.501 462.069 152.454C462.517 151.408 463.264 150.518 464.217 149.896C465.17 149.275 466.286 148.95 467.424 148.963C468.949 148.981 470.405 149.605 471.471 150.695C472.538 151.786 473.128 153.255 473.113 154.78Z" fill="white" stroke="#49576B"></path><path d="M491.479 154.986C491.465 156.223 491.085 157.428 490.386 158.448C489.688 159.469 488.702 160.259 487.554 160.72C486.406 161.18 485.148 161.29 483.937 161.035C482.727 160.78 481.62 160.172 480.755 159.288C479.89 158.404 479.307 157.283 479.08 156.067C478.852 154.851 478.99 153.596 479.476 152.458C479.962 151.321 480.774 150.353 481.81 149.678C482.846 149.002 484.059 148.649 485.296 148.663C486.954 148.683 488.536 149.361 489.695 150.546C490.854 151.731 491.496 153.328 491.479 154.986Z" fill="#E6E6E6"></path><path d="M397.996 210H253V320.773H397.996V210Z" fill="#EBEDEF"></path><path d="M390.791 215.504H260.205V315.269H390.791V215.504Z" fill="white"></path><path d="M282.361 248.294C285.356 248.294 287.784 245.866 287.784 242.872C287.784 239.877 285.356 237.45 282.361 237.45C279.367 237.45 276.939 239.877 276.939 242.872C276.939 245.866 279.367 248.294 282.361 248.294Z" fill="#EBEDEF"></path><path d="M369.479 238.652C369.963 238.652 370.441 238.746 370.888 238.931C371.335 239.115 371.741 239.386 372.083 239.727C372.425 240.069 372.697 240.475 372.882 240.921C373.067 241.368 373.162 241.846 373.162 242.33C373.162 242.813 373.067 243.292 372.882 243.738C372.697 244.185 372.425 244.59 372.083 244.932C371.741 245.273 371.335 245.544 370.888 245.729C370.441 245.913 369.963 246.008 369.479 246.007H312.454C311.478 246.007 310.543 245.619 309.854 244.93C309.164 244.24 308.777 243.305 308.777 242.33C308.777 241.354 309.164 240.419 309.854 239.729C310.543 239.04 311.478 238.652 312.454 238.652H369.479ZM369.479 237.752H312.454C311.852 237.751 311.256 237.869 310.7 238.098C310.144 238.328 309.638 238.665 309.212 239.09C308.787 239.515 308.449 240.02 308.218 240.576C307.988 241.132 307.869 241.728 307.869 242.33C307.869 242.931 307.988 243.527 308.218 244.083C308.449 244.639 308.787 245.144 309.212 245.569C309.638 245.994 310.144 246.331 310.7 246.561C311.256 246.79 311.852 246.908 312.454 246.907H369.479C370.081 246.908 370.677 246.79 371.233 246.561C371.789 246.331 372.295 245.994 372.721 245.569C373.146 245.144 373.484 244.639 373.715 244.083C373.945 243.527 374.064 242.931 374.064 242.33C374.064 241.728 373.945 241.132 373.715 240.576C373.484 240.02 373.146 239.515 372.721 239.09C372.295 238.665 371.789 238.328 371.233 238.098C370.677 237.869 370.081 237.751 369.479 237.752Z" fill="#3F3D56"></path><path d="M346.978 246.907H304.049C302.835 246.907 301.671 246.425 300.812 245.567C299.954 244.708 299.472 243.544 299.472 242.33C299.472 241.116 299.954 239.951 300.812 239.093C301.671 238.234 302.835 237.752 304.049 237.752H346.978C348.192 237.752 349.356 238.234 350.215 239.093C351.073 239.951 351.555 241.116 351.555 242.33C351.555 243.544 351.073 244.708 350.215 245.567C349.356 246.425 348.192 246.907 346.978 246.907Z" fill="#04B0EA"></path><path d="M287.284 265.387C287.284 268.105 285.08 270.309 282.361 270.309C279.643 270.309 277.439 268.105 277.439 265.387C277.439 262.668 279.643 260.465 282.361 260.465C285.08 260.465 287.284 262.668 287.284 265.387Z" fill="white" stroke="#49576B"></path><path d="M369.479 261.167C369.963 261.167 370.442 261.261 370.888 261.446C371.335 261.63 371.741 261.901 372.083 262.242C372.425 262.584 372.697 262.989 372.882 263.436C373.067 263.882 373.162 264.361 373.162 264.845C373.162 265.328 373.067 265.807 372.882 266.253C372.697 266.7 372.425 267.105 372.083 267.447C371.741 267.788 371.335 268.059 370.888 268.243C370.442 268.428 369.963 268.522 369.479 268.522H312.454C311.479 268.522 310.543 268.134 309.854 267.445C309.164 266.755 308.777 265.82 308.777 264.845C308.777 263.869 309.164 262.934 309.854 262.244C310.543 261.555 311.479 261.167 312.454 261.167H369.479ZM369.479 260.267H312.454C311.24 260.267 310.075 260.749 309.217 261.608C308.358 262.466 307.876 263.63 307.876 264.845C307.876 266.059 308.358 267.223 309.217 268.081C310.075 268.94 311.24 269.422 312.454 269.422H369.479C370.693 269.422 371.858 268.94 372.716 268.081C373.575 267.223 374.057 266.059 374.057 264.845C374.057 263.63 373.575 262.466 372.716 261.608C371.858 260.749 370.693 260.267 369.479 260.267Z" fill="#3F3D56"></path><path d="M363.188 269.422H304.049C302.835 269.422 301.671 268.94 300.812 268.081C299.954 267.223 299.472 266.059 299.472 264.844C299.472 263.63 299.954 262.466 300.812 261.607C301.671 260.749 302.835 260.267 304.049 260.267H363.188C364.402 260.267 365.567 260.749 366.425 261.607C367.284 262.466 367.766 263.63 367.766 264.844C367.766 266.059 367.284 267.223 366.425 268.081C365.567 268.94 364.402 269.422 363.188 269.422Z" fill="#EBEDEF"></path><path d="M282.361 293.324C285.356 293.324 287.784 290.896 287.784 287.902C287.784 284.907 285.356 282.48 282.361 282.48C279.367 282.48 276.939 284.907 276.939 287.902C276.939 290.896 279.367 293.324 282.361 293.324Z" fill="#EBEDEF"></path><path d="M369.479 283.682C369.963 283.681 370.442 283.776 370.888 283.96C371.335 284.145 371.741 284.416 372.083 284.757C372.425 285.099 372.697 285.504 372.882 285.951C373.067 286.397 373.162 286.876 373.162 287.359C373.162 287.843 373.067 288.321 372.882 288.768C372.697 289.214 372.425 289.62 372.083 289.962C371.741 290.303 371.335 290.574 370.888 290.758C370.442 290.943 369.963 291.037 369.479 291.037H312.454C311.479 291.037 310.543 290.649 309.854 289.96C309.164 289.27 308.777 288.335 308.777 287.359C308.777 286.384 309.164 285.449 309.854 284.759C310.543 284.07 311.479 283.682 312.454 283.682H369.479ZM369.479 282.782H312.454C311.24 282.782 310.075 283.264 309.217 284.122C308.358 284.981 307.876 286.145 307.876 287.359C307.876 288.573 308.358 289.738 309.217 290.596C310.075 291.455 311.24 291.937 312.454 291.937H369.479C370.693 291.937 371.858 291.455 372.716 290.596C373.575 289.738 374.057 288.573 374.057 287.359C374.057 286.145 373.575 284.981 372.716 284.122C371.858 283.264 370.693 282.782 369.479 282.782Z" fill="#3F3D56"></path><path d="M328.065 291.937H304.049C303.448 291.938 302.852 291.82 302.295 291.591C301.739 291.361 301.234 291.024 300.808 290.599C300.382 290.174 300.044 289.669 299.814 289.113C299.583 288.557 299.465 287.961 299.465 287.359C299.465 286.758 299.583 286.162 299.814 285.606C300.044 285.05 300.382 284.545 300.808 284.12C301.234 283.695 301.739 283.358 302.295 283.128C302.852 282.899 303.448 282.781 304.049 282.782H328.065C329.278 282.783 330.441 283.267 331.298 284.125C332.155 284.983 332.636 286.146 332.636 287.359C332.636 288.572 332.155 289.736 331.298 290.594C330.441 291.452 329.278 291.935 328.065 291.937Z" fill="#04B0EA"></path></g><defs><clipPath id="clip0_519_2536"><rect width="584" height="366" fill="white"></rect></clipPath></defs></svg>