<svg xmlns="http://www.w3.org/2000/svg" width="584" height="366" viewBox="0 0 584 366" fill="none"><g clip-path="url(#clip0_511_1459)"><path d="M218 205H169V183H170.97V203.084H218V205Z" fill="#CCCCCC"></path><path d="M155 251C158.314 251 161 253.462 161 256.5C161 259.538 158.314 262 155 262C151.686 262 149 259.538 149 256.5C149 253.462 151.686 251 155 251Z" fill="#EBEDEF"></path><path d="M202 234H153V256H154.97V235.916H202V234Z" fill="#EBEDEF"></path><path d="M291.991 129C343.911 129 386 170.861 386 222.5C386 274.139 343.911 316 291.991 316C240.071 316 168.216 264.802 197.982 222.5C227.748 180.198 240.071 129 291.991 129Z" fill="#F9F9F9"></path><mask id="mask0_511_1459" style="mask-type:alpha" maskUnits="userSpaceOnUse" x="191" y="129" width="195" height="187"><path d="M291.991 129C343.911 129 386 170.861 386 222.5C386 274.139 343.911 316 291.991 316C240.071 316 168.216 264.802 197.982 222.5C227.748 180.198 240.071 129 291.991 129Z" fill="#F9F9F9"></path></mask><g mask="url(#mask0_511_1459)"><path d="M241.001 348.119L242.599 331.128C262.524 300.939 255.952 274.804 254.705 249.374L326.605 247.259C326.778 279.999 320.006 311.438 335.38 331.128L264.221 361.454L241.001 348.119Z" fill="#A0616A"></path><path d="M336.74 333.849C306.539 353.943 261.744 355.129 241.577 334.906C241.577 334.906 237.269 335.399 241.009 330.923C257.966 309.53 252.661 285.805 252.661 285.805C252.661 285.805 250.017 285.263 252.361 283.707C254.705 282.152 248.546 256.963 248.546 256.963L245.492 235.554C242.156 225.58 235.943 209.916 242.017 203.907L275.853 190.162L307.573 189.104L341.409 204.965C351.087 209.892 339.28 229.98 335.336 240.111L329.362 289.533L329.115 291.574C329.115 291.574 325.109 316.931 336.965 331.985C333.568 332.791 336.74 333.849 336.74 333.849Z" fill="#E4E4E4"></path><path d="M359.568 355.595L359.588 355.797L359.745 355.928C360.182 356.295 360.595 356.685 360.97 357.121C364.736 361.497 364.241 368.098 359.865 371.864C355.488 375.63 348.887 375.135 345.121 370.759L344.742 371.085L345.121 370.759C341.909 367.026 341.806 361.678 344.562 357.847L344.678 357.685L344.651 357.487L331.641 262.291L349.793 257.154L359.568 355.595Z" fill="white" stroke="#2F2E41"></path><path d="M340.727 205.713C340.727 205.713 346.227 204.025 347.425 216.154C348.384 225.865 359.993 284.843 357.709 298.197C361.225 299.682 363.435 303.395 362.843 307.343L334.731 305.727C330.722 300.765 330.518 295.067 332.683 293.806L329.869 276.408L315.023 219.916L336.73 206.863L340.727 205.713Z" fill="#E4E4E4"></path><rect x="301.846" y="228.113" width="25.3766" height="47.5812" rx="3" fill="#04B0EA"></rect><mask id="path-11-inside-1_511_1459" fill="white"><path fill-rule="evenodd" clip-rule="evenodd" d="M232.542 217.006C233.72 205.102 256.862 229.695 256.862 229.695L249.228 266.806L289.792 250.02C290.69 244.49 295.488 240.269 301.271 240.269C307.695 240.269 312.902 245.476 312.902 251.9C312.902 258.323 307.695 263.531 301.271 263.531C300.971 263.531 300.673 263.519 300.378 263.497L300.423 263.588L244.997 286.602C238.318 289.376 230.693 285.848 228.497 278.958C224.965 267.873 229.197 239.757 231.414 225.031C231.964 221.376 232.39 218.547 232.542 217.006Z"></path></mask><path fill-rule="evenodd" clip-rule="evenodd" d="M232.542 217.006C233.72 205.102 256.862 229.695 256.862 229.695L249.228 266.806L289.792 250.02C290.69 244.49 295.488 240.269 301.271 240.269C307.695 240.269 312.902 245.476 312.902 251.9C312.902 258.323 307.695 263.531 301.271 263.531C300.971 263.531 300.673 263.519 300.378 263.497L300.423 263.588L244.997 286.602C238.318 289.376 230.693 285.848 228.497 278.958C224.965 267.873 229.197 239.757 231.414 225.031C231.964 221.376 232.39 218.547 232.542 217.006Z" fill="white"></path><path d="M256.862 229.695L257.841 229.896L257.946 229.387L257.59 229.009L256.862 229.695ZM232.542 217.006L233.538 217.105V217.105L232.542 217.006ZM249.228 266.806L248.248 266.604L247.868 268.451L249.61 267.73L249.228 266.806ZM289.792 250.02L290.174 250.944L290.689 250.73L290.779 250.18L289.792 250.02ZM300.378 263.497L300.454 262.5L298.714 262.368L299.479 263.935L300.378 263.497ZM300.423 263.588L300.806 264.512L301.787 264.104L301.321 263.15L300.423 263.588ZM244.997 286.602L245.38 287.526L244.997 286.602ZM228.497 278.958L229.45 278.654H229.45L228.497 278.958ZM231.414 225.031L232.403 225.18L231.414 225.031ZM256.862 229.695C257.59 229.009 257.59 229.009 257.59 229.009C257.589 229.009 257.589 229.008 257.589 229.008C257.588 229.007 257.587 229.006 257.585 229.004C257.582 229.001 257.578 228.996 257.572 228.99C257.56 228.978 257.543 228.96 257.521 228.936C257.476 228.889 257.41 228.819 257.324 228.729C257.152 228.55 256.9 228.289 256.58 227.962C255.94 227.307 255.025 226.387 253.923 225.32C251.724 223.189 248.766 220.46 245.761 218.1C242.794 215.769 239.651 213.691 237.1 213.001C235.822 212.656 234.486 212.603 233.395 213.286C232.278 213.985 231.71 215.267 231.547 216.908L233.538 217.105C233.67 215.769 234.082 215.215 234.456 214.981C234.856 214.731 235.521 214.646 236.578 214.932C238.698 215.505 241.561 217.343 244.526 219.673C247.454 221.972 250.356 224.648 252.532 226.756C253.618 227.809 254.52 228.716 255.15 229.36C255.465 229.682 255.712 229.938 255.879 230.113C255.963 230.201 256.027 230.268 256.07 230.313C256.091 230.335 256.108 230.352 256.118 230.364C256.123 230.369 256.127 230.373 256.13 230.376C256.131 230.378 256.132 230.379 256.133 230.379C256.133 230.379 256.133 230.38 256.133 230.38C256.133 230.38 256.133 230.38 256.862 229.695ZM250.207 267.007L257.841 229.896L255.882 229.493L248.248 266.604L250.207 267.007ZM289.409 249.096L248.845 265.882L249.61 267.73L290.174 250.944L289.409 249.096ZM301.271 239.269C294.99 239.269 289.781 243.853 288.805 249.859L290.779 250.18C291.6 245.127 295.986 241.269 301.271 241.269V239.269ZM313.902 251.9C313.902 244.924 308.247 239.269 301.271 239.269V241.269C307.143 241.269 311.902 246.028 311.902 251.9H313.902ZM301.271 264.531C308.247 264.531 313.902 258.876 313.902 251.9H311.902C311.902 257.771 307.143 262.531 301.271 262.531V264.531ZM300.302 264.494C300.622 264.518 300.946 264.531 301.271 264.531V262.531C300.996 262.531 300.723 262.52 300.454 262.5L300.302 264.494ZM301.321 263.15L301.277 263.058L299.479 263.935L299.524 264.027L301.321 263.15ZM245.38 287.526L300.806 264.512L300.039 262.665L244.613 285.679L245.38 287.526ZM227.545 279.262C229.919 286.711 238.162 290.523 245.38 287.526L244.613 285.679C238.474 288.228 231.468 284.985 229.45 278.654L227.545 279.262ZM230.425 224.882C229.317 232.241 227.7 242.982 226.803 253.273C226.355 258.419 226.085 263.47 226.151 267.941C226.217 272.395 226.616 276.348 227.545 279.262L229.45 278.654C228.612 276.026 228.216 272.308 228.151 267.912C228.086 263.534 228.351 258.556 228.796 253.447C229.686 243.227 231.294 232.547 232.403 225.18L230.425 224.882ZM231.547 216.908C231.398 218.416 230.978 221.212 230.425 224.882L232.403 225.18C232.951 221.541 233.382 218.677 233.538 217.105L231.547 216.908Z" fill="#2F2E41" mask="url(#path-11-inside-1_511_1459)"></path><path d="M246.376 213.753L230.74 217.113L220.954 279.801C220.954 279.801 229.413 292.49 237.872 292.49C246.331 292.49 254.606 287.552 254.606 287.552L263.782 288.468L261.001 251.899L252.209 261.15L260.182 227.192L246.376 213.753Z" fill="#E4E4E4"></path><path d="M256.981 236.527L230.74 217.113L239.035 206.201C242.351 201.84 248.032 200.178 253.177 202.071L267.046 207.173L256.981 236.527Z" fill="#E4E4E4"></path><path d="M287.312 184.604C284.645 185.59 281.917 186.516 279.078 187.208C275.389 188.107 273.306 188.523 269.746 187.142C269.621 187.093 269.501 187.045 269.389 186.998C256.091 181.451 246.66 168.222 246.37 152.704C246.352 152.452 246.352 152.188 246.352 151.93C246.352 150.679 246.405 149.434 246.53 148.208C246.69 146.506 246.957 144.835 247.337 143.203L247.301 143.197C244.418 140.249 243.309 136.212 243.677 132.155C244.146 126.853 247.129 121.513 251.921 118.507C255.486 116.275 259.549 114.785 263.908 114.276C265.041 114.147 266.186 114.076 267.354 114.076H278.173C280.468 113.547 282.752 113.179 284.964 113.005H284.982C306.756 111.199 323.926 125.634 322.325 143.197C322.313 143.216 322.295 143.236 322.284 143.255C321.821 144.01 321.412 144.726 321.05 145.409C320.7 146.048 320.403 146.661 320.148 147.241C318.161 151.73 327.604 221.378 324.217 222.436C322.289 223.036 314.52 171.209 315.913 181.064C317.669 193.428 297.343 180.896 287.312 184.604Z" fill="#2F2E41"></path><path d="M312.709 154.167C312.709 168.035 301.467 179.277 287.599 179.277C273.731 179.277 262.489 168.035 262.489 154.167C262.489 140.299 273.731 129.057 287.599 129.057C301.467 129.057 312.709 140.299 312.709 154.167Z" fill="white" stroke="#2F2E41"></path><path d="M309.869 143.337C309.442 143.563 309.021 143.77 308.594 143.978C308.149 144.191 307.705 144.405 307.254 144.607C298.683 148.492 291.702 148.925 287.467 143.337C287.349 140.413 286.696 137.507 285.516 134.808C285.735 137.798 284.917 140.846 283.256 143.337H274.727C265.943 149.168 261.435 154.524 267.532 173.664C267.93 174.921 270.652 219.595 271.429 223.029C258.131 217.928 246.66 163.77 246.37 149.5C246.352 149.269 246.352 149.025 246.352 148.788C246.352 147.637 246.405 146.493 246.53 145.366C246.69 143.8 246.957 142.264 247.337 140.763L247.301 140.757C244.418 138.047 243.309 134.334 243.677 130.603C245.895 127.697 248.653 125.217 251.815 123.308C254.644 121.932 257.627 120.816 260.723 119.962C260.8 119.945 260.866 119.927 260.943 119.909C261.88 119.654 262.841 119.423 263.802 119.221C265.765 118.812 267.758 118.503 269.798 118.313C269.946 118.308 270.089 118.296 270.219 118.296C271.056 118.296 271.833 118.527 272.509 118.924C272.515 118.924 272.515 118.93 272.526 118.93C273.019 119.221 273.458 119.606 273.802 120.069C274.389 120.816 274.727 121.754 274.727 122.774H284.229C284.579 122.774 284.929 122.786 285.279 122.803C298.511 123.331 309.146 128.99 309.828 141.997C309.858 142.448 309.869 142.887 309.869 143.337Z" fill="#2F2E41"></path><path d="M253.693 144.367C263.011 144.367 270.565 136.813 270.565 127.495C270.565 118.177 263.011 110.623 253.693 110.623C244.375 110.623 236.821 118.177 236.821 127.495C236.821 136.813 244.375 144.367 253.693 144.367Z" fill="#2F2E41"></path><path d="M276.856 119.691C274.939 128.81 265.483 134.264 256.436 132.033C247.388 129.802 241.863 120.659 244.094 111.612C246.325 102.565 257.305 105.173 264.515 99.2702C274.714 90.9199 279.441 107.394 276.856 119.691Z" fill="#2F2E41"></path></g><path d="M287.312 184.604C284.645 185.59 281.917 186.516 279.078 187.208C275.389 188.107 273.306 188.523 269.746 187.142C269.621 187.093 269.501 187.045 269.389 186.998C256.091 181.451 246.66 168.222 246.37 152.704C246.352 152.452 246.352 152.188 246.352 151.93C246.352 150.679 246.405 149.434 246.53 148.208C246.69 146.506 246.957 144.835 247.337 143.203L247.301 143.197C244.418 140.249 243.309 136.212 243.677 132.155C244.146 126.853 247.129 121.513 251.921 118.507C255.486 116.275 259.549 114.785 263.908 114.276C265.041 114.147 266.186 114.076 267.354 114.076H278.173C280.468 113.547 282.752 113.179 284.964 113.005H284.982C306.756 111.199 323.926 125.634 322.325 143.197C322.313 143.216 322.295 143.236 322.284 143.255C321.821 144.01 321.412 144.726 321.05 145.409C320.7 146.048 320.403 146.661 320.148 147.241C318.161 151.73 327.604 221.378 324.217 222.436C322.289 223.036 314.52 171.209 315.913 181.064C317.669 193.428 297.343 180.896 287.312 184.604Z" fill="#49576B"></path><path d="M312.709 154.167C312.709 168.035 301.467 179.277 287.599 179.277C273.731 179.277 262.489 168.035 262.489 154.167C262.489 140.299 273.731 129.057 287.599 129.057C301.467 129.057 312.709 140.299 312.709 154.167Z" fill="white" stroke="#2F2E41"></path><path d="M309.869 143.337C309.442 143.563 309.021 143.77 308.594 143.978C308.149 144.191 307.705 144.405 307.254 144.607C298.683 148.492 291.702 148.925 287.467 143.337C287.349 140.413 286.696 137.507 285.516 134.808C285.735 137.798 284.917 140.846 283.256 143.337H274.727C265.943 149.168 261.435 154.524 267.532 173.664C267.93 174.921 270.652 219.595 271.429 223.029C258.131 217.928 246.66 163.77 246.37 149.5C246.352 149.269 246.352 149.025 246.352 148.788C246.352 147.637 246.405 146.493 246.53 145.366C246.69 143.8 246.957 142.264 247.337 140.763L247.301 140.757C244.418 138.047 243.309 134.334 243.677 130.603C245.895 127.697 248.653 125.217 251.815 123.308C254.644 121.932 257.627 120.816 260.723 119.962C260.8 119.945 260.866 119.927 260.943 119.909C261.88 119.654 262.841 119.423 263.802 119.221C265.765 118.812 267.758 118.503 269.798 118.313C269.946 118.308 270.089 118.296 270.219 118.296C271.056 118.296 271.833 118.527 272.509 118.924C272.515 118.924 272.515 118.93 272.526 118.93C273.019 119.221 273.458 119.606 273.802 120.069C274.389 120.816 274.727 121.754 274.727 122.774H284.229C284.579 122.774 284.929 122.786 285.279 122.803C298.511 123.331 309.146 128.99 309.828 141.997C309.858 142.448 309.869 142.887 309.869 143.337Z" fill="#49576B"></path><path d="M253.693 144.367C263.011 144.367 270.565 136.813 270.565 127.495C270.565 118.177 263.011 110.623 253.693 110.623C244.375 110.623 236.821 118.177 236.821 127.495C236.821 136.813 244.375 144.367 253.693 144.367Z" fill="#49576B"></path><path d="M276.856 119.691C274.939 128.81 265.483 134.264 256.436 132.033C247.388 129.802 241.863 120.659 244.094 111.612C246.325 102.565 257.305 105.173 264.515 99.2702C274.714 90.9199 279.441 107.394 276.856 119.691Z" fill="#49576B"></path><path d="M543 59C546.314 59 549 56.5376 549 53.5C549 50.4624 546.314 48 543 48C539.686 48 537 50.4624 537 53.5C537 56.5376 539.686 59 543 59Z" fill="#EBEDEF"></path><path d="M591 76H542V54H543.97V74.0844H591V76Z" fill="#EBEDEF"></path><path d="M393 -33H391V59H393V-33Z" fill="#CCCCCC"></path><path d="M391.5 65C394.538 65 397 62.5376 397 59.5C397 56.4624 394.538 54 391.5 54C388.462 54 386 56.4624 386 59.5C386 62.5376 388.462 65 391.5 65Z" fill="#CCCCCC"></path><path d="M229 42C229 38.6863 226.538 36 223.5 36C220.462 36 218 38.6863 218 42C218 45.3137 220.462 48 223.5 48C226.538 48 229 45.3137 229 42Z" fill="#EBEDEF"></path><path d="M100 331C100 334.314 102.462 337 105.5 337C108.538 337 111 334.314 111 331C111 327.686 108.538 325 105.5 325C102.462 325 100 327.686 100 331Z" fill="#CCCCCC"></path><path d="M63 71C59.6863 71 57 73.4624 57 76.5C57 79.5376 59.6863 82 63 82C66.3137 82 69 79.5376 69 76.5C69 73.4624 66.3137 71 63 71Z" fill="#CCCCCC"></path><path d="M584 330H535V308H536.97V328.084H584V330Z" fill="#EBEDEF"></path><path d="M354 253H415V168.5H413.03V251.084H354V253Z" fill="#04B0EA"></path><path d="M537 313C540.314 313 543 310.538 543 307.5C543 304.462 540.314 302 537 302C533.686 302 531 304.462 531 307.5C531 310.538 533.686 313 537 313Z" fill="#EBEDEF"></path><path d="M246 -5L246 44L224 44L224 42.0304L244.084 42.0304L244.084 -5L246 -5Z" fill="#EBEDEF"></path><path d="M596 213L596 211L504 211L504 213L596 213Z" fill="#CCCCCC"></path><path d="M-5 156L-5 154L87 154L87 156L-5 156Z" fill="#E6E6E6"></path><path d="M498 211.5C498 214.538 500.462 217 503.5 217C506.538 217 509 214.538 509 211.5C509 208.462 506.538 206 503.5 206C500.462 206 498 208.462 498 211.5Z" fill="#CCCCCC"></path><path d="M93 154.5C93 157.538 90.5376 160 87.5 160C84.4624 160 82 157.538 82 154.5C82 151.462 84.4624 149 87.5 149C90.5376 149 93 151.462 93 154.5Z" fill="#E6E6E6"></path><path d="M83 378L83 329L105 329L105 330.969L84.9156 330.969L84.9156 378L83 378Z" fill="#CCCCCC"></path><path d="M-5 54L64 54L64 76L62.0304 76L62.0304 55.9156L-5 55.9156L-5 54Z" fill="#CCCCCC"></path><path d="M405.618 170.07L398.047 124.769C397.895 123.852 398.115 122.913 398.658 122.156C399.201 121.4 400.024 120.889 400.945 120.736L435.329 115.047C436.25 114.895 437.195 115.114 437.955 115.655C438.714 116.195 439.228 117.013 439.382 117.93L446.953 163.231C447.105 164.148 446.885 165.087 446.342 165.844C445.799 166.6 444.976 167.111 444.055 167.264L409.671 172.953C408.75 173.105 407.805 172.886 407.045 172.345C406.286 171.805 405.772 170.987 405.618 170.07Z" fill="#04B0EA"></path><path d="M405.924 155.791L401.044 126.701C400.901 125.843 401.108 124.964 401.618 124.256C402.128 123.549 402.9 123.071 403.765 122.928L433.394 118.044C434.26 117.902 435.147 118.107 435.86 118.612C436.574 119.118 437.056 119.883 437.201 120.741L443.956 161.006C444.099 161.864 443.892 162.743 443.382 163.45C442.872 164.158 442.1 164.636 441.235 164.779L422.88 167.805C419.025 168.436 415.075 167.525 411.896 165.273C408.717 163.02 406.57 159.61 405.924 155.791Z" fill="white"></path><path d="M407.043 134.266C406.904 133.41 407.105 132.533 407.603 131.828C408.101 131.122 408.855 130.646 409.7 130.502L430.239 127.044C430.658 126.974 431.086 126.988 431.499 127.085C431.912 127.182 432.303 127.36 432.648 127.61C432.993 127.86 433.286 128.176 433.511 128.541C433.735 128.905 433.887 129.311 433.956 129.735C434.026 130.158 434.012 130.592 433.916 131.01C433.821 131.429 433.644 131.824 433.397 132.174C433.151 132.523 432.838 132.82 432.478 133.047C432.118 133.274 431.718 133.428 431.299 133.498L410.76 136.956C409.915 137.098 409.049 136.894 408.352 136.389C407.655 135.885 407.185 135.121 407.043 134.266Z" fill="#E4E4E4"></path><path d="M409.043 144.266C408.904 143.41 409.105 142.533 409.603 141.828C410.101 141.122 410.856 140.646 411.7 140.502L432.239 137.044C433.084 136.902 433.951 137.106 434.648 137.61C435.345 138.115 435.816 138.879 435.956 139.735C436.097 140.59 435.896 141.468 435.397 142.174C434.899 142.879 434.144 143.356 433.299 143.498L412.76 146.956C411.915 147.098 411.049 146.894 410.352 146.389C409.655 145.885 409.185 145.121 409.043 144.266Z" fill="#E4E4E4"></path><path d="M410.043 153.539C409.904 152.769 410.105 151.98 410.603 151.345C411.101 150.71 411.856 150.281 412.7 150.152L433.239 147.04C433.658 146.976 434.086 146.989 434.499 147.076C434.912 147.163 435.303 147.324 435.648 147.549C435.993 147.774 436.286 148.058 436.511 148.387C436.735 148.715 436.887 149.08 436.956 149.461C437.026 149.843 437.012 150.233 436.916 150.609C436.821 150.986 436.644 151.342 436.398 151.656C436.151 151.971 435.838 152.238 435.478 152.442C435.118 152.647 434.718 152.785 434.299 152.848L413.76 155.961C412.915 156.088 412.049 155.904 411.352 155.45C410.655 154.996 410.185 154.309 410.043 153.539Z" fill="#E4E4E4"></path><circle cx="315" cy="251" r="39" stroke="#04B0EA" stroke-width="2"></circle><path d="M170 188C173.314 188 176 185.538 176 182.5C176 179.462 173.314 177 170 177C166.686 177 164 179.462 164 182.5C164 185.538 166.686 188 170 188Z" fill="#CCCCCC"></path></g><defs><clipPath id="clip0_511_1459"><rect width="584" height="366" fill="white"></rect></clipPath></defs></svg>