<svg xmlns="http://www.w3.org/2000/svg" width="584" height="366" viewBox="0 0 584 366" fill="none"><path d="M183.933 220C164.017 200.448 155.605 180.05 160.247 162.565C166.204 140.127 192.667 124.612 232.852 120L233 121.287C193.375 125.835 167.315 141.001 161.503 162.897C156.985 179.913 165.275 199.865 184.845 219.077L183.933 220Z" fill="#E6E6E6"></path><path d="M376.35 289C351.541 289 324.582 285.322 297.804 278.25C264.69 269.504 234.328 256.304 210 240.075L210.72 239C234.931 255.15 265.159 268.291 298.136 277C327.937 284.871 357.962 288.518 384.953 287.555L385 288.847C382.15 288.949 379.266 289 376.35 289Z" fill="#E6E6E6"></path><path d="M432.904 281L432.49 279.78C454.6 272.328 468.429 260.324 472.482 245.064C477.633 225.665 466.441 203.154 440.967 181.678C415.362 160.092 378.44 142.181 337 131.245L337.331 130C378.952 140.984 416.054 158.987 441.801 180.694C467.678 202.51 479.017 225.487 473.731 245.394C469.562 261.091 455.444 273.403 432.904 281Z" fill="#E6E6E6"></path><path d="M229.471 290C180.401 268.569 142.588 240.766 123 211.711L124.087 211C143.54 239.854 181.154 267.493 230 288.825L229.471 290Z" fill="#E6E6E6"></path><path d="M400.256 327C395.256 327 390.171 326.888 385 326.665L385.055 325.375C423.642 327.048 457.687 322.424 483.518 312L484 313.198C461.467 322.29 432.748 327 400.256 327Z" fill="#CCCCCC"></path><path d="M372.598 121C364.528 118.379 356.227 115.938 347.926 113.746C300.158 101.13 253.201 96.651 212.131 100.795L212 99.5059C253.224 95.3484 300.341 99.8383 348.258 112.494C356.583 114.692 364.907 117.14 373 119.768L372.598 121Z" fill="#E6E6E6"></path><path d="M153.933 222C134.017 202.644 125.605 182.45 130.247 165.14C136.204 142.925 162.667 127.566 202.852 123L203 124.274C163.375 128.776 137.315 143.791 131.503 165.468C126.985 182.314 135.275 202.067 154.845 221.086L153.933 222Z" fill="#CCCCCC"></path><path d="M345.35 292C320.541 292 293.582 288.322 266.804 281.25C233.69 272.504 203.328 259.304 179 243.075L179.72 242C203.931 258.15 234.159 271.291 267.136 280C296.937 287.871 326.962 291.518 353.953 290.555L354 291.847C351.15 291.949 348.266 292 345.35 292Z" fill="#CCCCCC"></path><path d="M402.599 283L402.182 281.78C424.452 274.328 438.381 262.324 442.463 247.064C447.652 227.665 436.379 205.154 410.72 183.678C384.93 162.092 347.74 144.181 306 133.245L306.333 132C348.256 142.984 385.626 160.987 411.56 182.694C437.625 204.51 449.047 227.487 443.722 247.394C439.522 263.091 425.302 275.403 402.599 283Z" fill="#CCCCCC"></path><path d="M198.476 292C149.864 270.298 112.405 242.143 93 212.72L94.0769 212C113.348 241.219 150.611 269.208 199 290.81L198.476 292Z" fill="#F0F0F0"></path><path d="M369.41 329C364.359 329 359.223 328.888 354 328.665L354.056 327.375C393.032 329.048 427.422 324.424 453.513 314L454 315.198C431.24 324.29 402.23 329 369.41 329Z" fill="#E6E6E6"></path><path d="M341.598 124C333.528 121.379 325.227 118.938 316.926 116.746C269.158 104.13 222.201 99.651 181.131 103.795L181 102.506C222.224 98.3484 269.341 102.838 317.258 115.494C325.583 117.692 333.907 120.14 342 122.768L341.598 124Z" fill="#CCCCCC"></path><path d="M136.5 153C139.538 153 142 150.538 142 147.5C142 144.462 139.538 142 136.5 142C133.462 142 131 144.462 131 147.5C131 150.538 133.462 153 136.5 153Z" fill="#F2F2F2"></path><path d="M403.5 126C406.538 126 409 123.761 409 121C409 118.239 406.538 116 403.5 116C400.462 116 398 118.239 398 121C398 123.761 400.462 126 403.5 126Z" fill="#CCCCCC"></path><path d="M521.5 71C524.538 71 527 68.7614 527 66C527 63.2386 524.538 61 521.5 61C518.462 61 516 63.2386 516 66C516 68.7614 518.462 71 521.5 71Z" fill="#CCCCCC"></path><path d="M151.5 50C154.538 50 157 47.7614 157 45C157 42.2386 154.538 40 151.5 40C148.462 40 146 42.2386 146 45C146 47.7614 148.462 50 151.5 50Z" fill="#CCCCCC"></path><path d="M437 310C439.761 310 442 307.761 442 305C442 302.239 439.761 300 437 300C434.239 300 432 302.239 432 305C432 307.761 434.239 310 437 310Z" fill="#F2F2F2"></path><path d="M205.33 166.705L205.527 165.394L231 169.367C228.404 166.819 219.808 158.939 212.011 158.14C202.697 157.185 198.599 161.239 198.058 166.704C197.516 172.168 200.736 176.972 210.05 177.927C217.945 178.736 228.071 172.595 230.974 170.705L205.33 166.705Z" fill="#EBEDEF"></path><path d="M298.711 335.149L298.312 336.413L273.767 328.528C275.935 331.448 283.202 340.57 290.779 342.571C299.832 344.962 304.51 341.594 305.895 336.28C307.279 330.967 304.846 325.72 295.793 323.329C288.12 321.302 277.162 325.795 274.001 327.211L298.711 335.149Z" fill="#EBEDEF"></path><path d="M447.327 99.1367L446.542 98.0605L467.077 82C463.476 82.1167 451.944 82.899 445.952 88.1105C438.795 94.3365 438.794 100.249 442.263 104.526C445.731 108.802 451.354 109.823 458.512 103.597C464.58 98.3199 467.309 86.46 468 82.9679L447.327 99.1367Z" fill="#D3D9DF"></path><path d="M35.5067 55.5394L34.6486 54.5207L54.0108 37.0645C50.4267 37.4326 38.9772 39.0188 33.3646 44.6362C26.6595 51.3472 27.0723 57.2452 30.8311 61.269C34.5899 65.2927 40.2708 65.9185 46.9762 59.2076C52.66 53.519 54.5538 41.4974 54.9992 37.9656L35.5067 55.5394Z" fill="#D3D9DF"></path><path d="M484.495 217.864L483.907 217.119L499.308 206C496.607 206.081 487.958 206.622 483.464 210.23C478.096 214.541 478.096 218.634 480.697 221.595C483.298 224.555 487.516 225.262 492.884 220.952C497.435 217.298 499.482 209.088 500 206.67L484.495 217.864Z" fill="#F2F2F2"></path><path d="M282.952 70.7204C286.981 60.1856 296.498 51.0828 308 50C301.085 60.206 298.104 72.4622 299.585 84.6001C300.174 89.2791 301.33 94.4237 298.736 98.4061C297.123 100.884 294.279 102.41 291.348 103.098C288.417 103.786 285.362 103.733 282.347 103.676L281.672 104C279.552 92.951 278.924 81.2552 282.952 70.7204Z" fill="#D3D9DF"></path><path d="M307.886 50.4808C300.23 55.813 294.454 63.4147 291.379 72.206C290.683 74.0868 290.289 76.0653 290.211 78.0685C290.198 80.0223 290.711 81.9438 291.695 83.6334C292.581 85.2272 293.672 86.7552 294.154 88.5359C294.387 89.451 294.424 90.405 294.261 91.3352C294.098 92.2653 293.74 93.1507 293.21 93.9333C291.941 95.9174 290.032 97.3285 288.117 98.6436C285.991 100.104 283.759 101.587 282.458 103.881C282.3 104.159 281.877 103.899 282.034 103.621C284.298 99.6303 289.048 98.1805 291.954 94.7904C293.31 93.2085 294.196 91.2096 293.777 89.1031C293.41 87.2612 292.286 85.6846 291.375 84.0786C290.391 82.4443 289.823 80.5947 289.721 78.6911C289.696 76.6905 290.013 74.7002 290.658 72.8055C292.042 68.517 294.094 64.472 296.738 60.8189C299.733 56.6329 303.424 52.9885 307.652 50.0434C307.914 49.8613 308.146 50.2998 307.886 50.4808Z" fill="white"></path><path d="M291.714 68.9715C290.664 68.269 289.839 67.0985 289.384 65.6689C288.93 64.2393 288.877 62.6438 289.234 61.1673C289.307 60.8688 289.663 61.0042 289.59 61.303C289.255 62.6771 289.305 64.1634 289.73 65.4935C290.155 66.8236 290.928 67.9099 291.908 68.5564C292.121 68.6972 291.926 69.1115 291.714 68.9715Z" fill="white"></path><path d="M291.181 82.4653C294.292 81.4161 296.919 79.1533 298.537 76.1282C298.697 75.8284 299.125 76.1094 298.965 76.4089C297.275 79.5535 294.537 81.9024 291.297 82.9866C290.988 83.0897 290.874 82.5678 291.181 82.4653Z" fill="white"></path><path d="M299.449 57.0266C300.03 57.3129 300.719 57.506 301.452 57.5887C302.185 57.6713 302.941 57.6409 303.65 57.5001C304.014 57.4273 304.149 57.7819 303.788 57.8543C303.003 58.0075 302.168 58.0405 301.358 57.9503C300.547 57.8601 299.785 57.6494 299.138 57.3368C299.073 57.3104 299.026 57.2699 299.008 57.2234C298.99 57.1769 299.002 57.1279 299.04 57.0863C299.082 57.0454 299.148 57.0162 299.224 57.005C299.301 56.9938 299.381 57.0016 299.449 57.0266Z" fill="white"></path><path d="M335 76.755C334.812 76.8246 334.624 76.8942 334.435 76.968C331.914 77.9172 329.471 79.0765 327.131 80.4345C326.949 80.5365 326.765 80.6428 326.586 80.75C320.983 84.0838 316.027 88.4637 311.971 93.667C310.359 95.7391 308.902 97.9349 307.612 100.235C305.831 103.413 304.145 107.004 301.529 109.32C301.259 109.564 300.974 109.792 300.676 110L282.829 105.636C282.793 105.605 282.756 105.578 282.72 105.547L282 105.406C282.059 105.283 282.122 105.156 282.18 105.033C282.214 104.961 282.252 104.89 282.285 104.818C282.309 104.771 282.333 104.723 282.352 104.679C282.359 104.663 282.367 104.647 282.374 104.636C282.393 104.591 282.415 104.552 282.433 104.512C282.784 103.803 283.141 103.095 283.504 102.388C283.505 102.384 283.505 102.384 283.51 102.38C286.222 96.9672 289.546 91.9058 293.412 87.3021C293.529 87.1663 293.647 87.0263 293.773 86.8925C295.538 84.8679 297.461 82.9959 299.522 81.295C300.653 80.3675 301.829 79.4997 303.046 78.695C306.192 76.6221 309.635 75.0735 313.247 74.1061C320.448 72.1787 328.165 72.6528 334.517 76.4593C334.68 76.5568 334.839 76.6533 335 76.755Z" fill="#EBEDEF"></path><path d="M334.72 76.5396C325.416 76.1886 316.242 78.8922 308.5 84.2664C306.814 85.3926 305.309 86.7879 304.041 88.4009C302.855 90.0136 302.106 91.927 301.872 93.9421C301.618 95.8165 301.567 97.7644 300.878 99.5419C300.513 100.446 299.967 101.26 299.278 101.93C298.588 102.601 297.77 103.112 296.877 103.43C294.672 104.285 292.303 104.265 289.987 104.161C287.416 104.047 284.746 103.886 282.33 104.977C282.037 105.109 281.856 104.63 282.149 104.498C286.353 102.598 291.007 104.358 295.361 103.358C297.393 102.891 299.302 101.786 300.236 99.7772C301.053 98.0208 301.108 96.0121 301.35 94.1119C301.55 92.1426 302.211 90.2542 303.276 88.6117C304.461 86.9368 305.912 85.4836 307.566 84.3144C311.25 81.6202 315.318 79.5445 319.623 78.1633C324.527 76.5587 329.659 75.8374 334.797 76.0307C335.115 76.0428 335.036 76.5516 334.72 76.5396Z" fill="white"></path><path d="M311.421 82.8485C310.989 81.3537 310.885 79.6481 311.129 78.0364C311.373 76.4247 311.948 75.0117 312.751 74.0499C312.914 73.8563 313.1 74.275 312.937 74.4689C312.188 75.3622 311.652 76.6784 311.427 78.18C311.202 79.6817 311.302 81.2698 311.709 82.6577C311.798 82.9595 311.509 83.1486 311.421 82.8485Z" fill="white"></path><path d="M301.382 93.4216C304.721 94.8041 308.383 94.6635 311.637 93.0278C311.96 92.8655 312.158 93.4592 311.836 93.6214C308.447 95.316 304.636 95.4533 301.164 94.0057C300.833 93.8675 301.053 93.2841 301.382 93.4216Z" fill="white"></path><path d="M324.47 77.193C324.621 77.9351 324.918 78.6187 325.334 79.1825C325.75 79.7463 326.271 80.1726 326.852 80.4232C327.15 80.5506 326.953 81.108 326.656 80.9814C326.016 80.7009 325.44 80.2292 324.98 79.6075C324.519 78.9859 324.188 78.2332 324.015 77.4153C323.993 77.3399 323.995 77.2571 324.021 77.1838C324.047 77.1105 324.094 77.0521 324.153 77.0205C324.213 76.9915 324.281 76.9933 324.34 77.0256C324.399 77.0579 324.446 77.1181 324.47 77.193Z" fill="white"></path><path d="M227.952 218.104C231.981 207.374 241.498 198.103 253 197C246.085 207.395 243.104 219.878 244.585 232.241C245.174 237.007 246.33 242.246 243.736 246.303C242.123 248.826 239.279 250.38 236.348 251.081C233.417 251.782 230.362 251.728 227.347 251.67L226.672 252C224.552 240.746 223.924 228.834 227.952 218.104Z" fill="#D3D9DF"></path><path d="M252.882 197.49C244.932 202.921 238.933 210.663 235.739 219.617C235.017 221.533 234.607 223.548 234.527 225.588C234.514 227.578 235.046 229.535 236.068 231.256C236.988 232.88 238.121 234.436 238.622 236.25C238.864 237.182 238.901 238.153 238.733 239.101C238.564 240.048 238.192 240.95 237.642 241.747C236.323 243.768 234.341 245.205 232.352 246.544C230.144 248.032 227.827 249.542 226.476 251.879C226.312 252.162 225.872 251.897 226.036 251.614C228.386 247.549 233.319 246.073 236.337 242.62C237.745 241.009 238.665 238.973 238.23 236.827C237.849 234.951 236.682 233.345 235.736 231.71C234.713 230.045 234.124 228.161 234.018 226.222C233.992 224.185 234.321 222.158 234.991 220.228C236.428 215.86 238.559 211.74 241.305 208.019C244.415 203.756 248.249 200.044 252.639 197.044C252.911 196.859 253.152 197.305 252.882 197.49Z" fill="white"></path><path d="M237.523 215.972C235.774 215.269 234.398 214.098 233.64 212.669C232.883 211.239 232.795 209.644 233.39 208.167C233.512 207.869 234.105 208.004 233.983 208.303C233.425 209.677 233.508 211.163 234.217 212.493C234.925 213.824 236.213 214.91 237.847 215.556C238.201 215.697 237.876 216.112 237.523 215.972Z" fill="white"></path><path d="M235.181 229.542C238.292 228.642 240.919 226.703 242.537 224.11C242.697 223.853 243.125 224.094 242.965 224.351C241.275 227.046 238.537 229.059 235.297 229.989C234.988 230.077 234.874 229.63 235.181 229.542Z" fill="white"></path><path d="M245.359 205.027C245.824 205.313 246.375 205.506 246.962 205.589C247.548 205.671 248.152 205.641 248.72 205.5C249.011 205.427 249.119 205.782 248.83 205.854C248.202 206.008 247.535 206.041 246.886 205.95C246.238 205.86 245.628 205.649 245.11 205.337C245.058 205.31 245.021 205.27 245.007 205.223C244.992 205.177 245.001 205.128 245.032 205.086C245.066 205.045 245.118 205.016 245.18 205.005C245.241 204.994 245.305 205.002 245.359 205.027Z" fill="white"></path><path d="M280 224.654C279.809 224.721 279.617 224.789 279.425 224.861C276.856 225.784 274.367 226.912 271.983 228.234C271.797 228.333 271.61 228.436 271.427 228.54C265.718 231.784 260.669 236.046 256.537 241.108C254.894 243.125 253.409 245.261 252.095 247.499C250.281 250.591 248.562 254.085 245.897 256.338C245.622 256.576 245.332 256.797 245.029 257L226.845 252.753C226.808 252.723 226.771 252.697 226.734 252.667L226 252.53C226.06 252.41 226.124 252.287 226.184 252.167C226.218 252.097 226.256 252.028 226.291 251.958C226.315 251.912 226.339 251.866 226.358 251.823C226.366 251.807 226.374 251.792 226.381 251.781C226.4 251.737 226.423 251.699 226.441 251.66C226.799 250.97 227.163 250.281 227.532 249.593C227.533 249.589 227.533 249.589 227.538 249.586C230.302 244.319 233.688 239.395 237.627 234.916C237.747 234.783 237.867 234.647 237.995 234.517C239.794 232.547 241.753 230.726 243.853 229.071C245.005 228.168 246.204 227.324 247.443 226.541C250.649 224.524 254.156 223.017 257.836 222.076C265.173 220.201 273.036 220.662 279.508 224.366C279.674 224.461 279.835 224.555 280 224.654Z" fill="#EBEDEF"></path><path d="M279.715 224.521C270.235 224.182 260.888 226.792 253 231.981C251.282 233.069 249.749 234.416 248.457 235.973C247.249 237.53 246.485 239.378 246.247 241.323C245.988 243.133 245.936 245.014 245.234 246.73C244.862 247.603 244.306 248.389 243.604 249.036C242.901 249.683 242.068 250.177 241.158 250.485C238.911 251.309 236.498 251.29 234.138 251.19C231.518 251.08 228.798 250.924 226.336 251.978C226.037 252.106 225.854 251.642 226.152 251.515C230.435 249.681 235.177 251.38 239.613 250.415C241.684 249.964 243.628 248.897 244.58 246.957C245.413 245.261 245.468 243.322 245.715 241.487C245.919 239.586 246.593 237.763 247.678 236.177C248.885 234.56 250.363 233.157 252.048 232.028C255.802 229.426 259.947 227.422 264.332 226.089C269.329 224.539 274.558 223.843 279.793 224.03C280.117 224.041 280.037 224.533 279.715 224.521Z" fill="white"></path><path d="M255.631 229.865C254.983 228.537 254.828 227.021 255.194 225.588C255.559 224.155 256.422 222.899 257.627 222.044C257.871 221.872 258.15 222.244 257.905 222.417C256.781 223.211 255.978 224.381 255.641 225.716C255.303 227.05 255.453 228.462 256.064 229.696C256.196 229.964 255.763 230.132 255.631 229.865Z" fill="white"></path><path d="M246.347 241.211C249.383 241.902 252.712 241.832 255.67 241.014C255.963 240.933 256.144 241.23 255.851 241.311C252.77 242.158 249.305 242.227 246.149 241.503C245.848 241.434 246.048 241.142 246.347 241.211Z" fill="white"></path><path d="M269.47 226.145C269.621 226.701 269.918 227.214 270.334 227.637C270.75 228.06 271.271 228.379 271.852 228.567C272.15 228.663 271.953 229.081 271.656 228.986C271.016 228.776 270.44 228.422 269.98 227.956C269.519 227.489 269.188 226.925 269.015 226.311C268.993 226.255 268.995 226.193 269.021 226.138C269.047 226.083 269.094 226.039 269.153 226.015C269.213 225.994 269.281 225.995 269.34 226.019C269.399 226.043 269.446 226.089 269.47 226.145Z" fill="white"></path><path d="M453.846 298.122C451.796 290.373 453.404 281.252 459.401 276C459.701 284.717 463.042 293.046 468.832 299.514C471.074 301.999 473.824 304.529 474 307.888C474.01 310.005 473.216 312.045 471.781 313.587C470.353 315.107 468.739 316.435 466.978 317.54L466.732 318C461.029 312.423 455.897 305.87 453.846 298.122Z" fill="#D3D9DF"></path><path d="M459.076 276.259C456.961 282.517 456.762 289.322 458.509 295.706C458.862 297.088 459.419 298.401 460.159 299.599C460.915 300.742 461.946 301.649 463.146 302.227C464.3 302.698 465.396 303.316 466.409 304.067C466.895 304.504 467.287 305.044 467.561 305.653C467.835 306.261 467.985 306.924 468 307.598C467.992 309.262 467.668 310.908 467.047 312.438C466.451 314.164 465.807 315.947 465.989 317.818C466.011 318.045 465.677 318.068 465.655 317.841C465.338 314.586 467.376 311.785 467.646 308.614C467.748 307.883 467.692 307.138 467.48 306.434C467.268 305.73 466.907 305.086 466.424 304.553C465.504 303.632 464.271 303.177 463.145 302.618C461.966 302.072 460.932 301.23 460.133 300.164C459.338 299.01 458.734 297.721 458.348 296.352C457.432 293.286 456.978 290.086 457.001 286.87C457.008 283.199 457.609 279.557 458.777 276.101C458.849 275.887 459.148 276.047 459.076 276.259Z" fill="white"></path><path d="M458.825 293.942C457.583 294.129 456.317 293.861 455.252 293.187C454.187 292.513 453.392 291.477 453.01 290.263C452.934 290.017 453.307 289.885 453.383 290.131C453.737 291.262 454.477 292.227 455.47 292.853C456.463 293.478 457.644 293.723 458.799 293.542C459.05 293.503 459.074 293.903 458.825 293.942Z" fill="white"></path><path d="M463.017 301.697C463.636 299.834 463.924 297.509 463.823 295.185C463.813 294.955 463.97 294.931 463.98 295.161C464.083 297.58 463.782 299.998 463.136 301.933C463.074 302.118 462.956 301.88 463.017 301.697Z" fill="white"></path><path d="M457.178 284.286C457.658 284.338 458.137 284.169 458.572 283.793C459.007 283.417 459.385 282.847 459.672 282.133C459.819 281.766 460.105 282.235 459.96 282.6C459.641 283.385 459.223 284.014 458.742 284.431C458.262 284.849 457.734 285.041 457.204 284.993C457.153 284.996 457.105 284.963 457.067 284.902C457.029 284.841 457.005 284.755 457 284.663C456.997 284.569 457.014 284.477 457.048 284.406C457.081 284.336 457.128 284.293 457.178 284.286Z" fill="white"></path><path d="M485 281C484.923 281.114 484.847 281.227 484.771 281.344C483.75 282.877 482.851 284.494 482.082 286.179C482.021 286.308 481.96 286.44 481.903 286.571C480.093 290.649 479.029 295.041 478.766 299.521C478.664 301.305 478.692 303.093 478.851 304.872C479.07 307.328 479.497 309.974 478.937 312.294C478.881 312.536 478.811 312.775 478.727 313.009L467.337 317.792C467.305 317.79 467.275 317.79 467.244 317.787L466.798 318C466.783 317.909 466.77 317.814 466.756 317.723C466.747 317.67 466.741 317.616 466.733 317.563C466.728 317.528 466.723 317.492 466.717 317.46C466.715 317.448 466.713 317.437 466.713 317.427C466.706 317.396 466.704 317.365 466.698 317.336C466.624 316.806 466.553 316.275 466.486 315.742C466.485 315.739 466.485 315.739 466.487 315.736C465.936 311.68 465.852 307.571 466.237 303.495C466.25 303.374 466.261 303.25 466.28 303.126C466.484 301.307 466.832 299.509 467.32 297.749C467.59 296.786 467.906 295.838 468.269 294.908C469.21 292.508 470.509 290.275 472.12 288.293C475.331 284.343 479.725 281.501 484.625 281.032C484.751 281.02 484.874 281.009 485 281Z" fill="#EBEDEF"></path><path d="M484.922 281.336C479.817 284.888 475.899 290.053 473.723 296.098C473.233 297.391 472.938 298.757 472.849 300.147C472.805 301.503 473.103 302.848 473.715 304.041C474.35 305.123 474.859 306.283 475.23 307.495C475.366 308.135 475.372 308.799 475.248 309.441C475.124 310.084 474.873 310.692 474.512 311.225C473.585 312.514 472.423 313.592 471.094 314.396C469.677 315.368 468.19 316.354 467.297 317.921C467.189 318.111 466.917 317.922 467.025 317.732C468.579 315.005 471.712 314.093 473.675 311.796C474.159 311.291 474.527 310.676 474.752 309.998C474.977 309.32 475.053 308.596 474.973 307.882C474.768 306.595 474.063 305.478 473.498 304.344C472.885 303.19 472.548 301.894 472.517 300.569C472.539 299.179 472.783 297.803 473.241 296.5C474.226 293.549 475.643 290.78 477.44 288.295C479.477 285.447 481.958 282.989 484.777 281.028C484.951 280.906 485.095 281.216 484.922 281.336Z" fill="white"></path><path d="M474.596 293.976C473.159 293.426 472.048 292.535 471.46 291.462C470.873 290.389 470.847 289.204 471.388 288.119C471.498 287.9 471.988 288.01 471.878 288.23C471.371 289.24 471.396 290.343 471.946 291.342C472.496 292.34 473.536 293.167 474.878 293.674C475.169 293.784 474.885 294.086 474.596 293.976Z" fill="white"></path><path d="M472.138 303.683C474.443 303.12 476.416 301.83 477.663 300.072C477.786 299.898 478.095 300.072 477.971 300.246C476.669 302.073 474.613 303.411 472.213 303.993C471.984 304.049 471.91 303.738 472.138 303.683Z" fill="white"></path><path d="M479.366 286.028C479.823 286.309 480.369 286.504 480.955 286.595C481.541 286.686 482.15 286.669 482.725 286.548C483.02 286.484 483.115 286.823 482.822 286.886C482.186 287.018 481.514 287.036 480.866 286.937C480.218 286.837 479.613 286.625 479.105 286.317C479.054 286.291 479.018 286.252 479.005 286.207C478.992 286.163 479.003 286.117 479.036 286.078C479.071 286.04 479.125 286.013 479.187 286.004C479.249 285.994 479.313 286.003 479.366 286.028Z" fill="white"></path><path d="M238.563 87.4366C238.619 93.8122 237.418 100.136 235.03 106.04L233.721 109.206C227.571 121.74 216.317 130.052 203.492 130.052C190.667 130.052 179.413 121.74 173.263 109.206L171.954 106.04C169.566 100.136 168.365 93.8122 168.421 87.4366V85.4575C168.586 80.8836 169.379 76.3548 170.776 72H236.208C237.605 76.3548 238.398 80.8836 238.563 85.4575V87.4366Z" fill="#EBEDEF"></path><path d="M237.886 72H169.097C167.387 72 166 73.5289 166 75.4148V83.0982C166 84.9841 167.387 86.513 169.097 86.513H237.886C239.597 86.513 240.984 84.9841 240.984 83.0982V75.4148C240.984 73.5289 239.597 72 237.886 72Z" fill="#49576B"></path><path d="M203.492 122.796C209.504 122.796 214.377 117.922 214.377 111.911C214.377 105.899 209.504 101.026 203.492 101.026C197.481 101.026 192.607 105.899 192.607 111.911C192.607 117.922 197.481 122.796 203.492 122.796Z" fill="white"></path><path d="M203.492 115.539C205.495 115.539 207.12 113.915 207.12 111.911C207.12 109.907 205.495 108.282 203.492 108.282C201.488 108.282 199.863 109.907 199.863 111.911C199.863 113.915 201.488 115.539 203.492 115.539Z" fill="#04B0EA"></path><path d="M185.737 295H111.263V218.63C111.263 202.381 124.489 189.162 140.746 189.162H156.253C172.51 189.162 185.737 202.381 185.737 218.63V295Z" fill="#49576B"></path><path d="M170.23 295H111.263V218.63C111.247 212.404 113.219 206.335 116.893 201.307C117.029 201.123 117.164 200.941 117.303 200.761C119.08 198.431 121.195 196.379 123.578 194.673C123.713 194.575 123.848 194.479 123.985 194.383C125.979 193.004 128.136 191.877 130.407 191.027C130.542 190.976 130.679 190.924 130.816 190.875C132.87 190.143 134.999 189.641 137.163 189.379C137.298 189.361 137.435 189.347 137.573 189.332C139.683 189.107 141.81 189.107 143.92 189.332C144.057 189.347 144.195 189.361 144.331 189.379C146.495 189.641 148.623 190.143 150.677 190.875C150.814 190.924 150.951 190.976 151.086 191.027C153.329 191.866 155.461 192.977 157.433 194.334C157.57 194.428 157.708 194.524 157.843 194.62C159.178 195.573 160.433 196.635 161.594 197.794C162.524 198.724 163.392 199.715 164.19 200.761C164.329 200.941 164.464 201.123 164.599 201.307C168.273 206.335 170.246 212.404 170.23 218.63V295Z" fill="#EBEDEF"></path><path d="M165.435 260.842C167.238 260.842 168.699 259.381 168.699 257.579C168.699 255.777 167.238 254.317 165.435 254.317C163.632 254.317 162.17 255.777 162.17 257.579C162.17 259.381 163.632 260.842 165.435 260.842Z" fill="#04B0EA"></path><path d="M154.008 272.874H127.483C127.134 272.876 126.798 272.739 126.55 272.494C126.301 272.248 126.16 271.915 126.157 271.565V212.392C126.16 212.043 126.301 211.709 126.55 211.464C126.798 211.219 127.134 211.082 127.483 211.084H154.008C154.358 211.082 154.694 211.219 154.942 211.464C155.191 211.709 155.332 212.043 155.335 212.392V271.565C155.332 271.915 155.191 272.248 154.942 272.494C154.694 272.739 154.358 272.876 154.008 272.874Z" fill="white"></path><path d="M155.335 230.231H126.157V230.639H155.335V230.231Z" fill="#2F2E41"></path><path d="M155.437 253.501H126.26V253.909H155.437V253.501Z" fill="#2F2E41"></path><path d="M135.748 211.084H135.34V273.078H135.748V211.084Z" fill="#2F2E41"></path><path d="M145.949 211.084H145.541V273.078H145.949V211.084Z" fill="#2F2E41"></path><path d="M324.419 252.098V316.629C324.42 317.451 324.746 318.239 325.326 318.821C325.907 319.402 326.694 319.729 327.515 319.73H422.966C423.786 319.729 424.573 319.402 425.154 318.821C425.734 318.239 426.061 317.451 426.061 316.629V252.098C426.059 251.276 425.732 250.489 425.152 249.908C424.572 249.328 423.786 249.001 422.966 249H327.515C326.695 249.001 325.908 249.328 325.328 249.908C324.748 250.489 324.421 251.276 324.419 252.098Z" fill="#49576B"></path><path d="M326.658 252.901V315.833C326.659 316.272 326.834 316.693 327.144 317.004C327.454 317.314 327.874 317.489 328.313 317.49H422.171C422.61 317.489 423.03 317.314 423.34 317.004C423.65 316.693 423.825 316.272 423.826 315.833V252.901C423.825 252.461 423.651 252.039 423.341 251.728C423.031 251.416 422.61 251.241 422.171 251.24H328.313C327.874 251.241 327.453 251.416 327.143 251.728C326.832 252.039 326.658 252.461 326.658 252.901Z" fill="white"></path><path d="M322.423 329.214C322.598 329.433 322.82 329.611 323.073 329.732C323.326 329.853 323.603 329.915 323.883 329.914H426.089C426.368 329.914 426.644 329.851 426.897 329.73C427.149 329.61 427.371 329.434 427.547 329.217C427.723 328.999 427.849 328.745 427.915 328.473C427.98 328.201 427.985 327.917 427.927 327.643L426.341 320.093C426.275 319.785 426.133 319.499 425.929 319.26C425.724 319.021 425.463 318.837 425.17 318.725C424.957 318.641 424.731 318.598 424.502 318.598H325.464C325.235 318.598 325.009 318.641 324.796 318.725C324.503 318.837 324.242 319.021 324.037 319.26C323.833 319.499 323.691 319.785 323.625 320.093L322.039 327.643C321.982 327.917 321.988 328.2 322.054 328.472C322.12 328.744 322.246 328.997 322.423 329.214Z" fill="#CCCCCC"></path><path d="M420.738 321.85H423.667C423.727 321.85 423.776 321.801 423.776 321.74V320.068C423.776 320.007 423.727 319.958 423.667 319.958H420.738C420.678 319.958 420.628 320.007 420.628 320.068V321.74C420.628 321.801 420.678 321.85 420.738 321.85Z" fill="#667285"></path><path d="M414.443 321.85H417.372C417.432 321.85 417.481 321.801 417.481 321.74V320.068C417.481 320.007 417.432 319.958 417.372 319.958H414.443C414.383 319.958 414.334 320.007 414.334 320.068V321.74C414.334 321.801 414.383 321.85 414.443 321.85Z" fill="#667285"></path><path d="M408.147 321.85H411.076C411.136 321.85 411.186 321.801 411.186 321.74V320.068C411.186 320.007 411.136 319.958 411.076 319.958H408.147C408.087 319.958 408.038 320.007 408.038 320.068V321.74C408.038 321.801 408.087 321.85 408.147 321.85Z" fill="#667285"></path><path d="M401.851 321.85H404.78C404.841 321.85 404.89 321.801 404.89 321.74V320.068C404.89 320.007 404.841 319.958 404.78 319.958H401.851C401.791 319.958 401.742 320.007 401.742 320.068V321.74C401.742 321.801 401.791 321.85 401.851 321.85Z" fill="#667285"></path><path d="M395.555 321.85H398.484C398.545 321.85 398.594 321.801 398.594 321.74V320.068C398.594 320.007 398.545 319.958 398.484 319.958H395.555C395.495 319.958 395.446 320.007 395.446 320.068V321.74C395.446 321.801 395.495 321.85 395.555 321.85Z" fill="#667285"></path><path d="M389.26 321.85H392.188C392.249 321.85 392.298 321.801 392.298 321.74V320.068C392.298 320.007 392.249 319.958 392.188 319.958H389.26C389.199 319.958 389.15 320.007 389.15 320.068V321.74C389.15 321.801 389.199 321.85 389.26 321.85Z" fill="#667285"></path><path d="M376.668 321.85H379.596C379.657 321.85 379.706 321.801 379.706 321.74V320.068C379.706 320.007 379.657 319.958 379.596 319.958H376.668C376.607 319.958 376.558 320.007 376.558 320.068V321.74C376.558 321.801 376.607 321.85 376.668 321.85Z" fill="#667285"></path><path d="M370.372 321.85H373.301C373.361 321.85 373.41 321.801 373.41 321.74V320.068C373.41 320.007 373.361 319.958 373.301 319.958H370.372C370.311 319.958 370.262 320.007 370.262 320.068V321.74C370.262 321.801 370.311 321.85 370.372 321.85Z" fill="#667285"></path><path d="M364.077 321.85H367.006C367.066 321.85 367.115 321.801 367.115 321.74V320.068C367.115 320.007 367.066 319.958 367.006 319.958H364.077C364.016 319.958 363.967 320.007 363.967 320.068V321.74C363.967 321.801 364.016 321.85 364.077 321.85Z" fill="#667285"></path><path d="M357.781 321.85H360.71C360.77 321.85 360.819 321.801 360.819 321.74V320.068C360.819 320.007 360.77 319.958 360.71 319.958H357.781C357.72 319.958 357.671 320.007 357.671 320.068V321.74C357.671 321.801 357.72 321.85 357.781 321.85Z" fill="#667285"></path><path d="M351.485 321.85H354.414C354.474 321.85 354.523 321.801 354.523 321.74V320.068C354.523 320.007 354.474 319.958 354.414 319.958H351.485C351.425 319.958 351.376 320.007 351.376 320.068V321.74C351.376 321.801 351.425 321.85 351.485 321.85Z" fill="#667285"></path><path d="M345.189 321.85H348.118C348.178 321.85 348.228 321.801 348.228 321.74V320.068C348.228 320.007 348.178 319.958 348.118 319.958H345.189C345.129 319.958 345.08 320.007 345.08 320.068V321.74C345.08 321.801 345.129 321.85 345.189 321.85Z" fill="#667285"></path><path d="M338.893 321.85H341.822C341.883 321.85 341.932 321.801 341.932 321.74V320.068C341.932 320.007 341.883 319.958 341.822 319.958H338.893C338.833 319.958 338.784 320.007 338.784 320.068V321.74C338.784 321.801 338.833 321.85 338.893 321.85Z" fill="#667285"></path><path d="M332.597 321.85H335.526C335.587 321.85 335.636 321.801 335.636 321.74V320.068C335.636 320.007 335.587 319.958 335.526 319.958H332.597C332.537 319.958 332.488 320.007 332.488 320.068V321.74C332.488 321.801 332.537 321.85 332.597 321.85Z" fill="#667285"></path><path d="M326.302 321.85H329.23C329.291 321.85 329.34 321.801 329.34 321.74V320.068C329.34 320.007 329.291 319.958 329.23 319.958H326.302C326.241 319.958 326.192 320.007 326.192 320.068V321.74C326.192 321.801 326.241 321.85 326.302 321.85Z" fill="#667285"></path><path d="M420.812 325.004H423.741C423.802 325.004 423.851 324.955 423.851 324.894V323.222C423.851 323.161 423.802 323.112 423.741 323.112H420.812C420.752 323.112 420.703 323.161 420.703 323.222V324.894C420.703 324.955 420.752 325.004 420.812 325.004Z" fill="#667285"></path><path d="M414.517 325.004H417.446C417.507 325.004 417.556 324.955 417.556 324.894V323.222C417.556 323.161 417.507 323.112 417.446 323.112H414.517C414.457 323.112 414.408 323.161 414.408 323.222V324.894C414.408 324.955 414.457 325.004 414.517 325.004Z" fill="#667285"></path><path d="M408.221 325.004H411.15C411.211 325.004 411.26 324.955 411.26 324.894V323.222C411.26 323.161 411.211 323.112 411.15 323.112H408.221C408.161 323.112 408.112 323.161 408.112 323.222V324.894C408.112 324.955 408.161 325.004 408.221 325.004Z" fill="#667285"></path><path d="M401.926 325.004H404.854C404.915 325.004 404.964 324.955 404.964 324.894V323.222C404.964 323.161 404.915 323.112 404.854 323.112H401.926C401.865 323.112 401.816 323.161 401.816 323.222V324.894C401.816 324.955 401.865 325.004 401.926 325.004Z" fill="#667285"></path><path d="M395.63 325.004H398.558C398.619 325.004 398.668 324.955 398.668 324.894V323.222C398.668 323.161 398.619 323.112 398.558 323.112H395.63C395.569 323.112 395.52 323.161 395.52 323.222V324.894C395.52 324.955 395.569 325.004 395.63 325.004Z" fill="#667285"></path><path d="M389.334 325.004H392.263C392.323 325.004 392.372 324.955 392.372 324.894V323.222C392.372 323.161 392.323 323.112 392.263 323.112H389.334C389.273 323.112 389.224 323.161 389.224 323.222V324.894C389.224 324.955 389.273 325.004 389.334 325.004Z" fill="#667285"></path><path d="M376.742 325.004H379.671C379.731 325.004 379.78 324.955 379.78 324.894V323.222C379.78 323.161 379.731 323.112 379.671 323.112H376.742C376.681 323.112 376.632 323.161 376.632 323.222V324.894C376.632 324.955 376.681 325.004 376.742 325.004Z" fill="#667285"></path><path d="M370.446 325.004H373.375C373.435 325.004 373.484 324.955 373.484 324.894V323.222C373.484 323.161 373.435 323.112 373.375 323.112H370.446C370.386 323.112 370.336 323.161 370.336 323.222V324.894C370.336 324.955 370.386 325.004 370.446 325.004Z" fill="#667285"></path><path d="M364.151 325.004H367.08C367.14 325.004 367.189 324.955 367.189 324.894V323.222C367.189 323.161 367.14 323.112 367.08 323.112H364.151C364.091 323.112 364.042 323.161 364.042 323.222V324.894C364.042 324.955 364.091 325.004 364.151 325.004Z" fill="#667285"></path><path d="M357.855 325.004H360.784C360.845 325.004 360.894 324.955 360.894 324.894V323.222C360.894 323.161 360.845 323.112 360.784 323.112H357.855C357.795 323.112 357.746 323.161 357.746 323.222V324.894C357.746 324.955 357.795 325.004 357.855 325.004Z" fill="#667285"></path><path d="M351.559 325.004H354.488C354.549 325.004 354.598 324.955 354.598 324.894V323.222C354.598 323.161 354.549 323.112 354.488 323.112H351.559C351.499 323.112 351.45 323.161 351.45 323.222V324.894C351.45 324.955 351.499 325.004 351.559 325.004Z" fill="#667285"></path><path d="M345.263 325.004H348.192C348.253 325.004 348.302 324.955 348.302 324.894V323.222C348.302 323.161 348.253 323.112 348.192 323.112H345.263C345.203 323.112 345.154 323.161 345.154 323.222V324.894C345.154 324.955 345.203 325.004 345.263 325.004Z" fill="#667285"></path><path d="M338.968 325.004H341.896C341.957 325.004 342.006 324.955 342.006 324.894V323.222C342.006 323.161 341.957 323.112 341.896 323.112H338.968C338.907 323.112 338.858 323.161 338.858 323.222V324.894C338.858 324.955 338.907 325.004 338.968 325.004Z" fill="#667285"></path><path d="M332.672 325.004H335.6C335.661 325.004 335.71 324.955 335.71 324.894V323.222C335.71 323.161 335.661 323.112 335.6 323.112H332.672C332.611 323.112 332.562 323.161 332.562 323.222V324.894C332.562 324.955 332.611 325.004 332.672 325.004Z" fill="#667285"></path><path d="M326.377 325.004H329.305C329.366 325.004 329.415 324.955 329.415 324.894V323.222C329.415 323.161 329.366 323.112 329.305 323.112H326.377C326.316 323.112 326.267 323.161 326.267 323.222V324.894C326.267 324.955 326.316 325.004 326.377 325.004Z" fill="#667285"></path><path d="M361.601 328.788H386.565C386.626 328.788 386.675 328.739 386.675 328.679V327.006C386.675 326.945 386.626 326.896 386.565 326.896H361.601C361.541 326.896 361.492 326.945 361.492 327.006V328.679C361.492 328.739 361.541 328.788 361.601 328.788Z" fill="#667285"></path><path d="M382.755 321.644H385.683C385.744 321.644 385.793 321.595 385.793 321.534V319.862C385.793 319.801 385.744 319.752 385.683 319.752H382.755C382.694 319.752 382.645 319.801 382.645 319.862V321.534C382.645 321.595 382.694 321.644 382.755 321.644Z" fill="#667285"></path><path d="M382.829 324.798H385.758C385.818 324.798 385.867 324.749 385.867 324.688V323.015C385.867 322.955 385.818 322.906 385.758 322.906H382.829C382.768 322.906 382.719 322.955 382.719 323.015V324.688C382.719 324.749 382.768 324.798 382.829 324.798Z" fill="#667285"></path><path d="M372.199 280.358L372.203 280.357C372.226 280.336 372.248 280.312 372.268 280.288L372.199 280.358Z" fill="#6C63FF"></path><path d="M381.169 297.567L381.17 297.57L381.189 297.532L381.169 297.567Z" fill="#6C63FF"></path><path d="M418.702 262.633H331.782C331.723 262.632 331.666 262.607 331.625 262.564C331.583 262.522 331.56 262.464 331.56 262.405C331.56 262.345 331.583 262.288 331.625 262.245C331.666 262.202 331.723 262.178 331.782 262.176H418.702C418.762 262.178 418.818 262.202 418.86 262.245C418.902 262.288 418.925 262.345 418.925 262.405C418.925 262.464 418.902 262.522 418.86 262.564C418.818 262.607 418.762 262.632 418.702 262.633Z" fill="#CACACA"></path><path d="M336.799 259.437C338.153 259.437 339.251 258.313 339.251 256.926C339.251 255.539 338.153 254.415 336.799 254.415C335.445 254.415 334.348 255.539 334.348 256.926C334.348 258.313 335.445 259.437 336.799 259.437Z" fill="#04B0EA"></path><path d="M345.269 259.437C346.623 259.437 347.721 258.313 347.721 256.926C347.721 255.539 346.623 254.415 345.269 254.415C343.915 254.415 342.817 255.539 342.817 256.926C342.817 258.313 343.915 259.437 345.269 259.437Z" fill="#04B0EA"></path><path d="M353.739 259.437C355.093 259.437 356.191 258.313 356.191 256.926C356.191 255.539 355.093 254.415 353.739 254.415C352.385 254.415 351.287 255.539 351.287 256.926C351.287 258.313 352.385 259.437 353.739 259.437Z" fill="#04B0EA"></path><path d="M413.626 255.037H407.61C407.49 255.039 407.377 255.089 407.293 255.174C407.21 255.259 407.163 255.374 407.163 255.494C407.163 255.613 407.21 255.728 407.293 255.813C407.377 255.898 407.49 255.948 407.61 255.95H413.626C413.745 255.948 413.859 255.898 413.942 255.813C414.026 255.728 414.073 255.613 414.073 255.494C414.073 255.374 414.026 255.259 413.942 255.174C413.859 255.089 413.745 255.039 413.626 255.037Z" fill="#49576B"></path><path d="M413.626 256.75H407.61C407.49 256.753 407.377 256.802 407.293 256.887C407.21 256.972 407.163 257.087 407.163 257.207C407.163 257.326 407.21 257.441 407.293 257.526C407.377 257.612 407.49 257.661 407.61 257.663H413.626C413.745 257.661 413.859 257.612 413.942 257.526C414.026 257.441 414.073 257.326 414.073 257.207C414.073 257.087 414.026 256.972 413.942 256.887C413.859 256.802 413.745 256.753 413.626 256.75Z" fill="#49576B"></path><path d="M413.626 258.461H407.61C407.49 258.464 407.377 258.513 407.293 258.598C407.21 258.683 407.163 258.798 407.163 258.918C407.163 259.037 407.21 259.152 407.293 259.237C407.377 259.323 407.49 259.372 407.61 259.374H413.626C413.745 259.372 413.859 259.323 413.942 259.237C414.026 259.152 414.073 259.037 414.073 258.918C414.073 258.798 414.026 258.683 413.942 258.598C413.859 258.513 413.745 258.464 413.626 258.461Z" fill="#49576B"></path><path d="M70.5003 161.5C48.8336 119.667 32.5003 36 140.5 36" stroke="#F0F0F0" stroke-width="2"></path><path d="M505.5 134C523.667 147.333 549.7 184.8 548.5 218" stroke="#CCCCCC" stroke-width="2"></path><path d="M179.5 328C195 334.5 233.5 347.8 263.5 349" stroke="#CCCCCC" stroke-width="2"></path></svg>