<svg xmlns="http://www.w3.org/2000/svg" width="584" height="368" viewBox="0 0 584 368" fill="none"><mask id="path-1-outside-1_519_2242" maskUnits="userSpaceOnUse" x="37" y="92.1243" width="185" height="185" fill="black"><rect fill="white" x="37" y="92.1243" width="185" height="185"></rect><path d="M129.449 276.124L129.449 275.514C128.237 275.514 127.005 275.489 125.79 275.44L125.765 276.049C126.989 276.099 128.228 276.124 129.449 276.124ZM133.132 276.053C134.352 276.006 135.589 275.933 136.81 275.837L136.762 275.228C135.549 275.324 134.32 275.397 133.108 275.444L133.132 276.053ZM122.088 275.829L122.137 275.22C120.926 275.124 119.701 275.001 118.496 274.855L118.422 275.461C119.636 275.607 120.869 275.731 122.088 275.829ZM140.476 275.473C141.692 275.327 142.919 275.155 144.124 274.962L144.027 274.36C142.831 274.552 141.611 274.723 140.403 274.867L140.476 275.473ZM114.775 274.946L114.872 274.343C113.676 274.15 112.465 273.929 111.272 273.686L111.151 274.284C112.351 274.528 113.57 274.751 114.775 274.946ZM147.749 274.304C148.949 274.061 150.159 273.791 151.344 273.5L151.199 272.908C150.022 273.196 148.82 273.465 147.628 273.706L147.749 274.304ZM107.556 273.476L107.702 272.884C106.521 272.593 105.331 272.275 104.167 271.937L103.997 272.523C105.17 272.863 106.367 273.183 107.556 273.476ZM154.905 272.552C156.081 272.212 157.265 271.844 158.423 271.459L158.23 270.88C157.08 271.263 155.904 271.628 154.735 271.965L154.905 272.552ZM100.48 271.426L100.673 270.848C99.5218 270.463 98.3622 270.049 97.2265 269.618L97.0097 270.188C98.1532 270.622 99.3207 271.039 100.48 271.426ZM161.904 270.221C163.048 269.787 164.201 269.324 165.33 268.843L165.091 268.282C163.969 268.759 162.824 269.22 161.688 269.65L161.904 270.221ZM93.6023 268.814L93.8418 268.253C92.7266 267.777 91.607 267.272 90.5142 266.752L90.2521 267.303C91.3523 267.826 92.4797 268.335 93.6023 268.814ZM168.697 267.327C169.805 266.801 170.916 266.246 171.998 265.677L171.715 265.137C170.639 265.702 169.536 266.254 168.435 266.776L168.697 267.327ZM86.9641 265.657L87.2482 265.118C86.1738 264.552 85.0977 263.958 84.0499 263.352L83.7443 263.88C84.7993 264.49 85.8826 265.088 86.9641 265.657ZM175.229 263.895C176.292 263.28 177.354 262.638 178.385 261.984L178.059 261.469C177.035 262.118 175.98 262.756 174.924 263.367L175.229 263.895ZM80.5975 261.974L80.9239 261.458C79.9014 260.811 78.8759 260.132 77.876 259.44L77.5293 259.942C78.5357 260.638 79.5681 261.322 80.5975 261.974ZM181.461 259.949C182.469 259.252 183.476 258.527 184.451 257.792L184.085 257.305C183.115 258.034 182.116 258.755 181.114 259.448L181.461 259.949ZM74.544 257.789L74.9109 257.301C73.9438 256.574 72.9755 255.815 72.0328 255.044L71.6468 255.517C72.5957 256.292 73.5706 257.056 74.544 257.789ZM187.352 255.517C188.299 254.744 189.244 253.94 190.159 253.129L189.755 252.672C188.845 253.478 187.907 254.277 186.966 255.045L187.352 255.517ZM68.8422 253.13L69.2467 252.674C68.3379 251.868 67.4331 251.034 66.5574 250.193L66.135 250.633C67.0164 251.479 67.9272 252.319 68.8422 253.13ZM192.868 250.63C193.747 249.785 194.624 248.909 195.473 248.026L195.034 247.603C194.19 248.48 193.319 249.351 192.445 250.19L192.868 250.63ZM63.5291 248.028L63.9688 247.605C63.1279 246.731 62.2924 245.826 61.4853 244.916L61.029 245.321C61.8415 246.237 62.6826 247.148 63.5291 248.028ZM197.972 245.32C198.785 244.403 199.589 243.46 200.361 242.517L199.888 242.131C199.122 243.068 198.324 244.005 197.516 244.915L197.972 245.32ZM58.6387 242.516L59.1111 242.13C58.3403 241.188 57.5795 240.218 56.8498 239.249L56.3625 239.616C57.097 240.592 57.8631 241.567 58.6387 242.516ZM202.634 239.621C203.369 238.645 204.094 237.641 204.789 236.637L204.288 236.29C203.597 237.287 202.877 238.284 202.147 239.254L202.634 239.621ZM54.204 236.627L54.7056 236.28C54.0128 235.278 53.3319 234.251 52.6823 233.226L52.167 233.552C52.8211 234.584 53.5064 235.618 54.204 236.627ZM206.822 233.57C207.476 232.539 208.118 231.481 208.73 230.424L208.202 230.118C207.594 231.168 206.957 232.219 206.307 233.243L206.822 233.57ZM50.2545 230.398L50.7822 230.092C50.1717 229.037 49.5757 227.957 49.0106 226.883L48.4709 227.168C49.0396 228.249 49.6397 229.335 50.2545 230.398ZM210.509 227.205C211.078 226.125 211.632 225.02 212.157 223.917L211.606 223.655C211.085 224.75 210.534 225.848 209.97 226.92L210.509 227.205ZM46.8188 223.867L47.3698 223.605C46.8477 222.507 46.3405 221.382 45.8627 220.262L45.3016 220.501C45.7826 221.629 46.2931 222.761 46.8188 223.867ZM213.67 220.568C214.15 219.445 214.613 218.299 215.046 217.162L214.476 216.945C214.046 218.074 213.586 219.213 213.109 220.328L213.67 220.568ZM43.9213 217.076L44.4917 216.859C44.0592 215.718 43.6446 214.555 43.2601 213.403L42.6816 213.596C43.0685 214.756 43.4858 215.927 43.9213 217.076ZM216.286 213.692C216.674 212.533 217.044 211.349 217.385 210.176L216.799 210.006C216.46 211.172 216.093 212.347 215.707 213.499L216.286 213.692ZM41.5867 210.077L42.1729 209.908C41.8363 208.744 41.5185 207.555 41.2281 206.373L40.636 206.518C40.9282 207.708 41.2481 208.906 41.5867 210.077ZM218.339 206.617C218.633 205.429 218.905 204.22 219.149 203.023L218.552 202.901C218.309 204.09 218.038 205.291 217.747 206.471L218.339 206.617ZM39.83 202.923L40.4281 202.802C40.1868 201.614 39.9664 200.402 39.7728 199.202L39.1706 199.299C39.3654 200.508 39.5872 201.727 39.83 202.923ZM219.813 199.399C220.009 198.195 220.183 196.968 220.33 195.752L219.725 195.678C219.578 196.887 219.405 198.105 219.211 199.302L219.813 199.399ZM38.6577 195.65L39.2635 195.577C39.1184 194.37 38.996 193.145 38.9001 191.936L38.2919 191.984C38.3887 193.201 38.5117 194.434 38.6577 195.65ZM220.7 192.087C220.798 190.868 220.873 189.631 220.923 188.409L220.314 188.384C220.264 189.598 220.19 190.827 220.092 192.038L220.7 192.087ZM38.0727 188.307L38.6821 188.283C38.6344 187.068 38.61 185.837 38.61 184.624L38.6103 184.422H38.0004L38 184.623C38 185.845 38.0245 187.084 38.0727 188.307ZM220.39 184.725H221L221 184.623C221 183.433 220.977 182.228 220.931 181.043L220.322 181.066C220.367 182.244 220.39 183.441 220.39 184.624L220.39 184.725ZM38.6908 180.764C38.7411 179.553 38.8167 178.324 38.9162 177.111L38.308 177.062C38.2082 178.282 38.132 179.519 38.0813 180.739L38.6908 180.764ZM220.108 177.413L220.716 177.365C220.62 176.144 220.498 174.91 220.354 173.699L219.748 173.771C219.892 174.974 220.013 176.2 220.108 177.413ZM39.2873 173.471C39.4344 172.268 39.6084 171.049 39.805 169.848L39.2027 169.75C39.0053 170.958 38.8298 172.185 38.6821 173.397L39.2873 173.471ZM219.243 170.147L219.846 170.05C219.652 168.843 219.432 167.623 219.19 166.425L218.592 166.546C218.832 167.735 219.051 168.947 219.243 170.147ZM40.4686 166.249C40.7134 165.057 40.9854 163.857 41.277 162.68L40.6848 162.533C40.3912 163.718 40.1174 164.927 39.8711 166.127L40.4686 166.249ZM217.796 162.974L218.388 162.829C218.098 161.642 217.779 160.444 217.441 159.268L216.855 159.437C217.191 160.605 217.507 161.795 217.796 162.974ZM42.2292 159.147C42.5687 157.982 42.9369 156.807 43.3241 155.655L42.7457 155.461C42.3561 156.62 41.9852 157.803 41.6436 158.976L42.2292 159.147ZM215.771 155.942L216.35 155.749C215.964 154.588 215.549 153.417 215.114 152.268L214.544 152.484C214.975 153.625 215.388 154.788 215.771 155.942ZM44.5602 152.21C44.9936 151.076 45.4546 149.938 45.9306 148.828L45.37 148.588C44.8908 149.705 44.4264 150.85 43.9901 151.993L44.5602 152.21ZM213.177 149.079L213.738 148.84C213.259 147.714 212.749 146.581 212.225 145.473L211.673 145.734C212.195 146.834 212.701 147.96 213.177 149.079ZM47.4371 145.502C47.9593 144.409 48.5108 143.311 49.0768 142.239L48.5376 141.954C47.9676 143.034 47.4121 144.139 46.8867 145.24L47.4371 145.502ZM210.036 142.454L210.576 142.171C210.007 141.087 209.409 140 208.796 138.939L208.268 139.244C208.876 140.298 209.471 141.378 210.036 142.454ZM50.8478 139.044C51.4578 137.994 52.0964 136.943 52.7463 135.921L52.2316 135.594C51.5772 136.623 50.9345 137.681 50.3203 138.738L50.8478 139.044ZM206.372 136.108L206.887 135.782C206.233 134.747 205.549 133.712 204.853 132.705L204.352 133.052C205.042 134.052 205.722 135.08 206.372 136.108ZM54.7696 132.877C55.4615 131.879 56.1829 130.883 56.9136 129.915L56.4269 129.547C55.6912 130.522 54.965 131.525 54.2686 132.529L54.7696 132.877ZM202.211 130.08L202.698 129.713C201.963 128.735 201.198 127.759 200.425 126.811L199.953 127.197C200.721 128.138 201.48 129.108 202.211 130.08ZM59.1751 127.041C59.9445 126.102 60.7439 125.166 61.5505 124.259L61.0948 123.853C60.2825 124.767 59.4781 125.709 58.7034 126.654L59.1751 127.041ZM197.581 124.407L198.038 124.003C197.228 123.088 196.388 122.176 195.541 121.293L195.101 121.715C195.942 122.593 196.777 123.498 197.581 124.407ZM64.0358 121.573C64.8799 120.697 65.7517 119.828 66.6273 118.989L66.2053 118.548C65.3239 119.393 64.4462 120.268 63.5967 121.15L64.0358 121.573ZM192.515 119.126L192.938 118.686C192.058 117.839 191.148 116.998 190.233 116.186L189.828 116.642C190.737 117.448 191.641 118.284 192.515 119.126ZM69.3202 116.51C70.2317 115.704 71.1708 114.906 72.1111 114.14L71.7257 113.667C70.7791 114.439 69.8337 115.241 68.9163 116.053L69.3202 116.51ZM187.045 114.268L187.431 113.796C186.485 113.021 185.511 112.255 184.537 111.521L184.169 112.008C185.137 112.737 186.105 113.498 187.045 114.268ZM74.9958 111.884C75.9689 111.153 76.9693 110.433 77.9686 109.744L77.6225 109.242C76.6164 109.936 75.6094 110.66 74.6294 111.396L74.9958 111.884ZM181.206 109.865L181.554 109.364C180.548 108.667 179.517 107.982 178.487 107.329L178.16 107.844C179.183 108.493 180.207 109.173 181.206 109.865ZM81.0261 107.726C82.0546 107.076 83.1098 106.439 84.163 105.832L83.858 105.303C82.7982 105.914 81.7358 106.556 80.7002 107.21L81.0261 107.726ZM175.037 105.947L175.343 105.419C174.288 104.808 173.206 104.209 172.125 103.639L171.84 104.178C172.914 104.744 173.989 105.339 175.037 105.947ZM87.3742 104.065C88.4515 103.501 89.5554 102.95 90.6553 102.429L90.3944 101.878C89.287 102.402 88.1754 102.956 87.0912 103.525L87.3742 104.065ZM168.577 102.54L168.839 101.989C167.739 101.465 166.613 100.955 165.49 100.475L165.25 101.035C166.365 101.513 167.484 102.019 168.577 102.54ZM94.0011 100.928C95.1222 100.452 96.2677 99.9926 97.4061 99.5628L97.1905 98.9921C96.0446 99.4247 94.8911 99.8871 93.7628 100.366L94.0011 100.928ZM161.867 99.6666L162.084 99.0965C160.943 98.6613 159.776 98.2435 158.616 97.8543L158.422 98.4328C159.574 98.8192 160.733 99.2344 161.867 99.6666ZM100.865 98.3368C102.018 97.9545 103.194 97.5907 104.361 97.2555L104.193 96.6693C103.018 97.0068 101.834 97.373 100.673 97.7578L100.865 98.3368ZM154.929 97.3393L155.1 96.7537C153.927 96.4124 152.729 96.0904 151.542 95.7966L151.395 96.3887C152.575 96.6806 153.764 97.0005 154.929 97.3393ZM107.898 96.3169C109.076 96.0297 110.278 95.7624 111.471 95.5224L111.35 94.9243C110.15 95.1659 108.94 95.4352 107.754 95.7242L107.898 96.3169ZM147.826 95.5826L147.948 94.9851C146.753 94.7402 145.533 94.5163 144.325 94.3192L144.227 94.9212C145.427 95.117 146.638 95.3395 147.826 95.5826ZM115.072 94.8731C116.272 94.6819 117.491 94.5124 118.697 94.3697L118.625 93.7639C117.411 93.9076 116.184 94.0781 114.976 94.2708L115.072 94.8731ZM140.604 94.4056L140.678 93.8001C139.464 93.6524 138.231 93.5271 137.013 93.4282L136.963 94.0361C138.174 94.1346 139.399 94.2588 140.604 94.4056ZM122.339 94.0123C123.548 93.918 124.777 93.8468 125.992 93.8008L125.969 93.1911C124.746 93.2376 123.509 93.3092 122.291 93.4041L122.339 94.0123ZM133.31 93.8126L133.335 93.2032C132.116 93.1529 130.876 93.1263 129.652 93.1243L129.651 93.7343C130.867 93.7363 132.098 93.7627 133.31 93.8126Z"></path></mask><path d="M129.449 276.124L129.449 275.514C128.237 275.514 127.005 275.489 125.79 275.44L125.765 276.049C126.989 276.099 128.228 276.124 129.449 276.124ZM133.132 276.053C134.352 276.006 135.589 275.933 136.81 275.837L136.762 275.228C135.549 275.324 134.32 275.397 133.108 275.444L133.132 276.053ZM122.088 275.829L122.137 275.22C120.926 275.124 119.701 275.001 118.496 274.855L118.422 275.461C119.636 275.607 120.869 275.731 122.088 275.829ZM140.476 275.473C141.692 275.327 142.919 275.155 144.124 274.962L144.027 274.36C142.831 274.552 141.611 274.723 140.403 274.867L140.476 275.473ZM114.775 274.946L114.872 274.343C113.676 274.15 112.465 273.929 111.272 273.686L111.151 274.284C112.351 274.528 113.57 274.751 114.775 274.946ZM147.749 274.304C148.949 274.061 150.159 273.791 151.344 273.5L151.199 272.908C150.022 273.196 148.82 273.465 147.628 273.706L147.749 274.304ZM107.556 273.476L107.702 272.884C106.521 272.593 105.331 272.275 104.167 271.937L103.997 272.523C105.17 272.863 106.367 273.183 107.556 273.476ZM154.905 272.552C156.081 272.212 157.265 271.844 158.423 271.459L158.23 270.88C157.08 271.263 155.904 271.628 154.735 271.965L154.905 272.552ZM100.48 271.426L100.673 270.848C99.5218 270.463 98.3622 270.049 97.2265 269.618L97.0097 270.188C98.1532 270.622 99.3207 271.039 100.48 271.426ZM161.904 270.221C163.048 269.787 164.201 269.324 165.33 268.843L165.091 268.282C163.969 268.759 162.824 269.22 161.688 269.65L161.904 270.221ZM93.6023 268.814L93.8418 268.253C92.7266 267.777 91.607 267.272 90.5142 266.752L90.2521 267.303C91.3523 267.826 92.4797 268.335 93.6023 268.814ZM168.697 267.327C169.805 266.801 170.916 266.246 171.998 265.677L171.715 265.137C170.639 265.702 169.536 266.254 168.435 266.776L168.697 267.327ZM86.9641 265.657L87.2482 265.118C86.1738 264.552 85.0977 263.958 84.0499 263.352L83.7443 263.88C84.7993 264.49 85.8826 265.088 86.9641 265.657ZM175.229 263.895C176.292 263.28 177.354 262.638 178.385 261.984L178.059 261.469C177.035 262.118 175.98 262.756 174.924 263.367L175.229 263.895ZM80.5975 261.974L80.9239 261.458C79.9014 260.811 78.8759 260.132 77.876 259.44L77.5293 259.942C78.5357 260.638 79.5681 261.322 80.5975 261.974ZM181.461 259.949C182.469 259.252 183.476 258.527 184.451 257.792L184.085 257.305C183.115 258.034 182.116 258.755 181.114 259.448L181.461 259.949ZM74.544 257.789L74.9109 257.301C73.9438 256.574 72.9755 255.815 72.0328 255.044L71.6468 255.517C72.5957 256.292 73.5706 257.056 74.544 257.789ZM187.352 255.517C188.299 254.744 189.244 253.94 190.159 253.129L189.755 252.672C188.845 253.478 187.907 254.277 186.966 255.045L187.352 255.517ZM68.8422 253.13L69.2467 252.674C68.3379 251.868 67.4331 251.034 66.5574 250.193L66.135 250.633C67.0164 251.479 67.9272 252.319 68.8422 253.13ZM192.868 250.63C193.747 249.785 194.624 248.909 195.473 248.026L195.034 247.603C194.19 248.48 193.319 249.351 192.445 250.19L192.868 250.63ZM63.5291 248.028L63.9688 247.605C63.1279 246.731 62.2924 245.826 61.4853 244.916L61.029 245.321C61.8415 246.237 62.6826 247.148 63.5291 248.028ZM197.972 245.32C198.785 244.403 199.589 243.46 200.361 242.517L199.888 242.131C199.122 243.068 198.324 244.005 197.516 244.915L197.972 245.32ZM58.6387 242.516L59.1111 242.13C58.3403 241.188 57.5795 240.218 56.8498 239.249L56.3625 239.616C57.097 240.592 57.8631 241.567 58.6387 242.516ZM202.634 239.621C203.369 238.645 204.094 237.641 204.789 236.637L204.288 236.29C203.597 237.287 202.877 238.284 202.147 239.254L202.634 239.621ZM54.204 236.627L54.7056 236.28C54.0128 235.278 53.3319 234.251 52.6823 233.226L52.167 233.552C52.8211 234.584 53.5064 235.618 54.204 236.627ZM206.822 233.57C207.476 232.539 208.118 231.481 208.73 230.424L208.202 230.118C207.594 231.168 206.957 232.219 206.307 233.243L206.822 233.57ZM50.2545 230.398L50.7822 230.092C50.1717 229.037 49.5757 227.957 49.0106 226.883L48.4709 227.168C49.0396 228.249 49.6397 229.335 50.2545 230.398ZM210.509 227.205C211.078 226.125 211.632 225.02 212.157 223.917L211.606 223.655C211.085 224.75 210.534 225.848 209.97 226.92L210.509 227.205ZM46.8188 223.867L47.3698 223.605C46.8477 222.507 46.3405 221.382 45.8627 220.262L45.3016 220.501C45.7826 221.629 46.2931 222.761 46.8188 223.867ZM213.67 220.568C214.15 219.445 214.613 218.299 215.046 217.162L214.476 216.945C214.046 218.074 213.586 219.213 213.109 220.328L213.67 220.568ZM43.9213 217.076L44.4917 216.859C44.0592 215.718 43.6446 214.555 43.2601 213.403L42.6816 213.596C43.0685 214.756 43.4858 215.927 43.9213 217.076ZM216.286 213.692C216.674 212.533 217.044 211.349 217.385 210.176L216.799 210.006C216.46 211.172 216.093 212.347 215.707 213.499L216.286 213.692ZM41.5867 210.077L42.1729 209.908C41.8363 208.744 41.5185 207.555 41.2281 206.373L40.636 206.518C40.9282 207.708 41.2481 208.906 41.5867 210.077ZM218.339 206.617C218.633 205.429 218.905 204.22 219.149 203.023L218.552 202.901C218.309 204.09 218.038 205.291 217.747 206.471L218.339 206.617ZM39.83 202.923L40.4281 202.802C40.1868 201.614 39.9664 200.402 39.7728 199.202L39.1706 199.299C39.3654 200.508 39.5872 201.727 39.83 202.923ZM219.813 199.399C220.009 198.195 220.183 196.968 220.33 195.752L219.725 195.678C219.578 196.887 219.405 198.105 219.211 199.302L219.813 199.399ZM38.6577 195.65L39.2635 195.577C39.1184 194.37 38.996 193.145 38.9001 191.936L38.2919 191.984C38.3887 193.201 38.5117 194.434 38.6577 195.65ZM220.7 192.087C220.798 190.868 220.873 189.631 220.923 188.409L220.314 188.384C220.264 189.598 220.19 190.827 220.092 192.038L220.7 192.087ZM38.0727 188.307L38.6821 188.283C38.6344 187.068 38.61 185.837 38.61 184.624L38.6103 184.422H38.0004L38 184.623C38 185.845 38.0245 187.084 38.0727 188.307ZM220.39 184.725H221L221 184.623C221 183.433 220.977 182.228 220.931 181.043L220.322 181.066C220.367 182.244 220.39 183.441 220.39 184.624L220.39 184.725ZM38.6908 180.764C38.7411 179.553 38.8167 178.324 38.9162 177.111L38.308 177.062C38.2082 178.282 38.132 179.519 38.0813 180.739L38.6908 180.764ZM220.108 177.413L220.716 177.365C220.62 176.144 220.498 174.91 220.354 173.699L219.748 173.771C219.892 174.974 220.013 176.2 220.108 177.413ZM39.2873 173.471C39.4344 172.268 39.6084 171.049 39.805 169.848L39.2027 169.75C39.0053 170.958 38.8298 172.185 38.6821 173.397L39.2873 173.471ZM219.243 170.147L219.846 170.05C219.652 168.843 219.432 167.623 219.19 166.425L218.592 166.546C218.832 167.735 219.051 168.947 219.243 170.147ZM40.4686 166.249C40.7134 165.057 40.9854 163.857 41.277 162.68L40.6848 162.533C40.3912 163.718 40.1174 164.927 39.8711 166.127L40.4686 166.249ZM217.796 162.974L218.388 162.829C218.098 161.642 217.779 160.444 217.441 159.268L216.855 159.437C217.191 160.605 217.507 161.795 217.796 162.974ZM42.2292 159.147C42.5687 157.982 42.9369 156.807 43.3241 155.655L42.7457 155.461C42.3561 156.62 41.9852 157.803 41.6436 158.976L42.2292 159.147ZM215.771 155.942L216.35 155.749C215.964 154.588 215.549 153.417 215.114 152.268L214.544 152.484C214.975 153.625 215.388 154.788 215.771 155.942ZM44.5602 152.21C44.9936 151.076 45.4546 149.938 45.9306 148.828L45.37 148.588C44.8908 149.705 44.4264 150.85 43.9901 151.993L44.5602 152.21ZM213.177 149.079L213.738 148.84C213.259 147.714 212.749 146.581 212.225 145.473L211.673 145.734C212.195 146.834 212.701 147.96 213.177 149.079ZM47.4371 145.502C47.9593 144.409 48.5108 143.311 49.0768 142.239L48.5376 141.954C47.9676 143.034 47.4121 144.139 46.8867 145.24L47.4371 145.502ZM210.036 142.454L210.576 142.171C210.007 141.087 209.409 140 208.796 138.939L208.268 139.244C208.876 140.298 209.471 141.378 210.036 142.454ZM50.8478 139.044C51.4578 137.994 52.0964 136.943 52.7463 135.921L52.2316 135.594C51.5772 136.623 50.9345 137.681 50.3203 138.738L50.8478 139.044ZM206.372 136.108L206.887 135.782C206.233 134.747 205.549 133.712 204.853 132.705L204.352 133.052C205.042 134.052 205.722 135.08 206.372 136.108ZM54.7696 132.877C55.4615 131.879 56.1829 130.883 56.9136 129.915L56.4269 129.547C55.6912 130.522 54.965 131.525 54.2686 132.529L54.7696 132.877ZM202.211 130.08L202.698 129.713C201.963 128.735 201.198 127.759 200.425 126.811L199.953 127.197C200.721 128.138 201.48 129.108 202.211 130.08ZM59.1751 127.041C59.9445 126.102 60.7439 125.166 61.5505 124.259L61.0948 123.853C60.2825 124.767 59.4781 125.709 58.7034 126.654L59.1751 127.041ZM197.581 124.407L198.038 124.003C197.228 123.088 196.388 122.176 195.541 121.293L195.101 121.715C195.942 122.593 196.777 123.498 197.581 124.407ZM64.0358 121.573C64.8799 120.697 65.7517 119.828 66.6273 118.989L66.2053 118.548C65.3239 119.393 64.4462 120.268 63.5967 121.15L64.0358 121.573ZM192.515 119.126L192.938 118.686C192.058 117.839 191.148 116.998 190.233 116.186L189.828 116.642C190.737 117.448 191.641 118.284 192.515 119.126ZM69.3202 116.51C70.2317 115.704 71.1708 114.906 72.1111 114.14L71.7257 113.667C70.7791 114.439 69.8337 115.241 68.9163 116.053L69.3202 116.51ZM187.045 114.268L187.431 113.796C186.485 113.021 185.511 112.255 184.537 111.521L184.169 112.008C185.137 112.737 186.105 113.498 187.045 114.268ZM74.9958 111.884C75.9689 111.153 76.9693 110.433 77.9686 109.744L77.6225 109.242C76.6164 109.936 75.6094 110.66 74.6294 111.396L74.9958 111.884ZM181.206 109.865L181.554 109.364C180.548 108.667 179.517 107.982 178.487 107.329L178.16 107.844C179.183 108.493 180.207 109.173 181.206 109.865ZM81.0261 107.726C82.0546 107.076 83.1098 106.439 84.163 105.832L83.858 105.303C82.7982 105.914 81.7358 106.556 80.7002 107.21L81.0261 107.726ZM175.037 105.947L175.343 105.419C174.288 104.808 173.206 104.209 172.125 103.639L171.84 104.178C172.914 104.744 173.989 105.339 175.037 105.947ZM87.3742 104.065C88.4515 103.501 89.5554 102.95 90.6553 102.429L90.3944 101.878C89.287 102.402 88.1754 102.956 87.0912 103.525L87.3742 104.065ZM168.577 102.54L168.839 101.989C167.739 101.465 166.613 100.955 165.49 100.475L165.25 101.035C166.365 101.513 167.484 102.019 168.577 102.54ZM94.0011 100.928C95.1222 100.452 96.2677 99.9926 97.4061 99.5628L97.1905 98.9921C96.0446 99.4247 94.8911 99.8871 93.7628 100.366L94.0011 100.928ZM161.867 99.6666L162.084 99.0965C160.943 98.6613 159.776 98.2435 158.616 97.8543L158.422 98.4328C159.574 98.8192 160.733 99.2344 161.867 99.6666ZM100.865 98.3368C102.018 97.9545 103.194 97.5907 104.361 97.2555L104.193 96.6693C103.018 97.0068 101.834 97.373 100.673 97.7578L100.865 98.3368ZM154.929 97.3393L155.1 96.7537C153.927 96.4124 152.729 96.0904 151.542 95.7966L151.395 96.3887C152.575 96.6806 153.764 97.0005 154.929 97.3393ZM107.898 96.3169C109.076 96.0297 110.278 95.7624 111.471 95.5224L111.35 94.9243C110.15 95.1659 108.94 95.4352 107.754 95.7242L107.898 96.3169ZM147.826 95.5826L147.948 94.9851C146.753 94.7402 145.533 94.5163 144.325 94.3192L144.227 94.9212C145.427 95.117 146.638 95.3395 147.826 95.5826ZM115.072 94.8731C116.272 94.6819 117.491 94.5124 118.697 94.3697L118.625 93.7639C117.411 93.9076 116.184 94.0781 114.976 94.2708L115.072 94.8731ZM140.604 94.4056L140.678 93.8001C139.464 93.6524 138.231 93.5271 137.013 93.4282L136.963 94.0361C138.174 94.1346 139.399 94.2588 140.604 94.4056ZM122.339 94.0123C123.548 93.918 124.777 93.8468 125.992 93.8008L125.969 93.1911C124.746 93.2376 123.509 93.3092 122.291 93.4041L122.339 94.0123ZM133.31 93.8126L133.335 93.2032C132.116 93.1529 130.876 93.1263 129.652 93.1243L129.651 93.7343C130.867 93.7363 132.098 93.7627 133.31 93.8126Z" fill="#425066"></path><path d="M129.449 276.124L129.449 275.514C128.237 275.514 127.005 275.489 125.79 275.44L125.765 276.049C126.989 276.099 128.228 276.124 129.449 276.124ZM133.132 276.053C134.352 276.006 135.589 275.933 136.81 275.837L136.762 275.228C135.549 275.324 134.32 275.397 133.108 275.444L133.132 276.053ZM122.088 275.829L122.137 275.22C120.926 275.124 119.701 275.001 118.496 274.855L118.422 275.461C119.636 275.607 120.869 275.731 122.088 275.829ZM140.476 275.473C141.692 275.327 142.919 275.155 144.124 274.962L144.027 274.36C142.831 274.552 141.611 274.723 140.403 274.867L140.476 275.473ZM114.775 274.946L114.872 274.343C113.676 274.15 112.465 273.929 111.272 273.686L111.151 274.284C112.351 274.528 113.57 274.751 114.775 274.946ZM147.749 274.304C148.949 274.061 150.159 273.791 151.344 273.5L151.199 272.908C150.022 273.196 148.82 273.465 147.628 273.706L147.749 274.304ZM107.556 273.476L107.702 272.884C106.521 272.593 105.331 272.275 104.167 271.937L103.997 272.523C105.17 272.863 106.367 273.183 107.556 273.476ZM154.905 272.552C156.081 272.212 157.265 271.844 158.423 271.459L158.23 270.88C157.08 271.263 155.904 271.628 154.735 271.965L154.905 272.552ZM100.48 271.426L100.673 270.848C99.5218 270.463 98.3622 270.049 97.2265 269.618L97.0097 270.188C98.1532 270.622 99.3207 271.039 100.48 271.426ZM161.904 270.221C163.048 269.787 164.201 269.324 165.33 268.843L165.091 268.282C163.969 268.759 162.824 269.22 161.688 269.65L161.904 270.221ZM93.6023 268.814L93.8418 268.253C92.7266 267.777 91.607 267.272 90.5142 266.752L90.2521 267.303C91.3523 267.826 92.4797 268.335 93.6023 268.814ZM168.697 267.327C169.805 266.801 170.916 266.246 171.998 265.677L171.715 265.137C170.639 265.702 169.536 266.254 168.435 266.776L168.697 267.327ZM86.9641 265.657L87.2482 265.118C86.1738 264.552 85.0977 263.958 84.0499 263.352L83.7443 263.88C84.7993 264.49 85.8826 265.088 86.9641 265.657ZM175.229 263.895C176.292 263.28 177.354 262.638 178.385 261.984L178.059 261.469C177.035 262.118 175.98 262.756 174.924 263.367L175.229 263.895ZM80.5975 261.974L80.9239 261.458C79.9014 260.811 78.8759 260.132 77.876 259.44L77.5293 259.942C78.5357 260.638 79.5681 261.322 80.5975 261.974ZM181.461 259.949C182.469 259.252 183.476 258.527 184.451 257.792L184.085 257.305C183.115 258.034 182.116 258.755 181.114 259.448L181.461 259.949ZM74.544 257.789L74.9109 257.301C73.9438 256.574 72.9755 255.815 72.0328 255.044L71.6468 255.517C72.5957 256.292 73.5706 257.056 74.544 257.789ZM187.352 255.517C188.299 254.744 189.244 253.94 190.159 253.129L189.755 252.672C188.845 253.478 187.907 254.277 186.966 255.045L187.352 255.517ZM68.8422 253.13L69.2467 252.674C68.3379 251.868 67.4331 251.034 66.5574 250.193L66.135 250.633C67.0164 251.479 67.9272 252.319 68.8422 253.13ZM192.868 250.63C193.747 249.785 194.624 248.909 195.473 248.026L195.034 247.603C194.19 248.48 193.319 249.351 192.445 250.19L192.868 250.63ZM63.5291 248.028L63.9688 247.605C63.1279 246.731 62.2924 245.826 61.4853 244.916L61.029 245.321C61.8415 246.237 62.6826 247.148 63.5291 248.028ZM197.972 245.32C198.785 244.403 199.589 243.46 200.361 242.517L199.888 242.131C199.122 243.068 198.324 244.005 197.516 244.915L197.972 245.32ZM58.6387 242.516L59.1111 242.13C58.3403 241.188 57.5795 240.218 56.8498 239.249L56.3625 239.616C57.097 240.592 57.8631 241.567 58.6387 242.516ZM202.634 239.621C203.369 238.645 204.094 237.641 204.789 236.637L204.288 236.29C203.597 237.287 202.877 238.284 202.147 239.254L202.634 239.621ZM54.204 236.627L54.7056 236.28C54.0128 235.278 53.3319 234.251 52.6823 233.226L52.167 233.552C52.8211 234.584 53.5064 235.618 54.204 236.627ZM206.822 233.57C207.476 232.539 208.118 231.481 208.73 230.424L208.202 230.118C207.594 231.168 206.957 232.219 206.307 233.243L206.822 233.57ZM50.2545 230.398L50.7822 230.092C50.1717 229.037 49.5757 227.957 49.0106 226.883L48.4709 227.168C49.0396 228.249 49.6397 229.335 50.2545 230.398ZM210.509 227.205C211.078 226.125 211.632 225.02 212.157 223.917L211.606 223.655C211.085 224.75 210.534 225.848 209.97 226.92L210.509 227.205ZM46.8188 223.867L47.3698 223.605C46.8477 222.507 46.3405 221.382 45.8627 220.262L45.3016 220.501C45.7826 221.629 46.2931 222.761 46.8188 223.867ZM213.67 220.568C214.15 219.445 214.613 218.299 215.046 217.162L214.476 216.945C214.046 218.074 213.586 219.213 213.109 220.328L213.67 220.568ZM43.9213 217.076L44.4917 216.859C44.0592 215.718 43.6446 214.555 43.2601 213.403L42.6816 213.596C43.0685 214.756 43.4858 215.927 43.9213 217.076ZM216.286 213.692C216.674 212.533 217.044 211.349 217.385 210.176L216.799 210.006C216.46 211.172 216.093 212.347 215.707 213.499L216.286 213.692ZM41.5867 210.077L42.1729 209.908C41.8363 208.744 41.5185 207.555 41.2281 206.373L40.636 206.518C40.9282 207.708 41.2481 208.906 41.5867 210.077ZM218.339 206.617C218.633 205.429 218.905 204.22 219.149 203.023L218.552 202.901C218.309 204.09 218.038 205.291 217.747 206.471L218.339 206.617ZM39.83 202.923L40.4281 202.802C40.1868 201.614 39.9664 200.402 39.7728 199.202L39.1706 199.299C39.3654 200.508 39.5872 201.727 39.83 202.923ZM219.813 199.399C220.009 198.195 220.183 196.968 220.33 195.752L219.725 195.678C219.578 196.887 219.405 198.105 219.211 199.302L219.813 199.399ZM38.6577 195.65L39.2635 195.577C39.1184 194.37 38.996 193.145 38.9001 191.936L38.2919 191.984C38.3887 193.201 38.5117 194.434 38.6577 195.65ZM220.7 192.087C220.798 190.868 220.873 189.631 220.923 188.409L220.314 188.384C220.264 189.598 220.19 190.827 220.092 192.038L220.7 192.087ZM38.0727 188.307L38.6821 188.283C38.6344 187.068 38.61 185.837 38.61 184.624L38.6103 184.422H38.0004L38 184.623C38 185.845 38.0245 187.084 38.0727 188.307ZM220.39 184.725H221L221 184.623C221 183.433 220.977 182.228 220.931 181.043L220.322 181.066C220.367 182.244 220.39 183.441 220.39 184.624L220.39 184.725ZM38.6908 180.764C38.7411 179.553 38.8167 178.324 38.9162 177.111L38.308 177.062C38.2082 178.282 38.132 179.519 38.0813 180.739L38.6908 180.764ZM220.108 177.413L220.716 177.365C220.62 176.144 220.498 174.91 220.354 173.699L219.748 173.771C219.892 174.974 220.013 176.2 220.108 177.413ZM39.2873 173.471C39.4344 172.268 39.6084 171.049 39.805 169.848L39.2027 169.75C39.0053 170.958 38.8298 172.185 38.6821 173.397L39.2873 173.471ZM219.243 170.147L219.846 170.05C219.652 168.843 219.432 167.623 219.19 166.425L218.592 166.546C218.832 167.735 219.051 168.947 219.243 170.147ZM40.4686 166.249C40.7134 165.057 40.9854 163.857 41.277 162.68L40.6848 162.533C40.3912 163.718 40.1174 164.927 39.8711 166.127L40.4686 166.249ZM217.796 162.974L218.388 162.829C218.098 161.642 217.779 160.444 217.441 159.268L216.855 159.437C217.191 160.605 217.507 161.795 217.796 162.974ZM42.2292 159.147C42.5687 157.982 42.9369 156.807 43.3241 155.655L42.7457 155.461C42.3561 156.62 41.9852 157.803 41.6436 158.976L42.2292 159.147ZM215.771 155.942L216.35 155.749C215.964 154.588 215.549 153.417 215.114 152.268L214.544 152.484C214.975 153.625 215.388 154.788 215.771 155.942ZM44.5602 152.21C44.9936 151.076 45.4546 149.938 45.9306 148.828L45.37 148.588C44.8908 149.705 44.4264 150.85 43.9901 151.993L44.5602 152.21ZM213.177 149.079L213.738 148.84C213.259 147.714 212.749 146.581 212.225 145.473L211.673 145.734C212.195 146.834 212.701 147.96 213.177 149.079ZM47.4371 145.502C47.9593 144.409 48.5108 143.311 49.0768 142.239L48.5376 141.954C47.9676 143.034 47.4121 144.139 46.8867 145.24L47.4371 145.502ZM210.036 142.454L210.576 142.171C210.007 141.087 209.409 140 208.796 138.939L208.268 139.244C208.876 140.298 209.471 141.378 210.036 142.454ZM50.8478 139.044C51.4578 137.994 52.0964 136.943 52.7463 135.921L52.2316 135.594C51.5772 136.623 50.9345 137.681 50.3203 138.738L50.8478 139.044ZM206.372 136.108L206.887 135.782C206.233 134.747 205.549 133.712 204.853 132.705L204.352 133.052C205.042 134.052 205.722 135.08 206.372 136.108ZM54.7696 132.877C55.4615 131.879 56.1829 130.883 56.9136 129.915L56.4269 129.547C55.6912 130.522 54.965 131.525 54.2686 132.529L54.7696 132.877ZM202.211 130.08L202.698 129.713C201.963 128.735 201.198 127.759 200.425 126.811L199.953 127.197C200.721 128.138 201.48 129.108 202.211 130.08ZM59.1751 127.041C59.9445 126.102 60.7439 125.166 61.5505 124.259L61.0948 123.853C60.2825 124.767 59.4781 125.709 58.7034 126.654L59.1751 127.041ZM197.581 124.407L198.038 124.003C197.228 123.088 196.388 122.176 195.541 121.293L195.101 121.715C195.942 122.593 196.777 123.498 197.581 124.407ZM64.0358 121.573C64.8799 120.697 65.7517 119.828 66.6273 118.989L66.2053 118.548C65.3239 119.393 64.4462 120.268 63.5967 121.15L64.0358 121.573ZM192.515 119.126L192.938 118.686C192.058 117.839 191.148 116.998 190.233 116.186L189.828 116.642C190.737 117.448 191.641 118.284 192.515 119.126ZM69.3202 116.51C70.2317 115.704 71.1708 114.906 72.1111 114.14L71.7257 113.667C70.7791 114.439 69.8337 115.241 68.9163 116.053L69.3202 116.51ZM187.045 114.268L187.431 113.796C186.485 113.021 185.511 112.255 184.537 111.521L184.169 112.008C185.137 112.737 186.105 113.498 187.045 114.268ZM74.9958 111.884C75.9689 111.153 76.9693 110.433 77.9686 109.744L77.6225 109.242C76.6164 109.936 75.6094 110.66 74.6294 111.396L74.9958 111.884ZM181.206 109.865L181.554 109.364C180.548 108.667 179.517 107.982 178.487 107.329L178.16 107.844C179.183 108.493 180.207 109.173 181.206 109.865ZM81.0261 107.726C82.0546 107.076 83.1098 106.439 84.163 105.832L83.858 105.303C82.7982 105.914 81.7358 106.556 80.7002 107.21L81.0261 107.726ZM175.037 105.947L175.343 105.419C174.288 104.808 173.206 104.209 172.125 103.639L171.84 104.178C172.914 104.744 173.989 105.339 175.037 105.947ZM87.3742 104.065C88.4515 103.501 89.5554 102.95 90.6553 102.429L90.3944 101.878C89.287 102.402 88.1754 102.956 87.0912 103.525L87.3742 104.065ZM168.577 102.54L168.839 101.989C167.739 101.465 166.613 100.955 165.49 100.475L165.25 101.035C166.365 101.513 167.484 102.019 168.577 102.54ZM94.0011 100.928C95.1222 100.452 96.2677 99.9926 97.4061 99.5628L97.1905 98.9921C96.0446 99.4247 94.8911 99.8871 93.7628 100.366L94.0011 100.928ZM161.867 99.6666L162.084 99.0965C160.943 98.6613 159.776 98.2435 158.616 97.8543L158.422 98.4328C159.574 98.8192 160.733 99.2344 161.867 99.6666ZM100.865 98.3368C102.018 97.9545 103.194 97.5907 104.361 97.2555L104.193 96.6693C103.018 97.0068 101.834 97.373 100.673 97.7578L100.865 98.3368ZM154.929 97.3393L155.1 96.7537C153.927 96.4124 152.729 96.0904 151.542 95.7966L151.395 96.3887C152.575 96.6806 153.764 97.0005 154.929 97.3393ZM107.898 96.3169C109.076 96.0297 110.278 95.7624 111.471 95.5224L111.35 94.9243C110.15 95.1659 108.94 95.4352 107.754 95.7242L107.898 96.3169ZM147.826 95.5826L147.948 94.9851C146.753 94.7402 145.533 94.5163 144.325 94.3192L144.227 94.9212C145.427 95.117 146.638 95.3395 147.826 95.5826ZM115.072 94.8731C116.272 94.6819 117.491 94.5124 118.697 94.3697L118.625 93.7639C117.411 93.9076 116.184 94.0781 114.976 94.2708L115.072 94.8731ZM140.604 94.4056L140.678 93.8001C139.464 93.6524 138.231 93.5271 137.013 93.4282L136.963 94.0361C138.174 94.1346 139.399 94.2588 140.604 94.4056ZM122.339 94.0123C123.548 93.918 124.777 93.8468 125.992 93.8008L125.969 93.1911C124.746 93.2376 123.509 93.3092 122.291 93.4041L122.339 94.0123ZM133.31 93.8126L133.335 93.2032C132.116 93.1529 130.876 93.1263 129.652 93.1243L129.651 93.7343C130.867 93.7363 132.098 93.7627 133.31 93.8126Z" stroke="#425066" stroke-width="0.4" mask="url(#path-1-outside-1_519_2242)"></path><path d="M161.81 241.727C129.3 241.727 102.945 215.372 102.945 182.862C102.945 150.352 129.3 123.997 161.81 123.997C194.321 123.997 220.675 150.352 220.675 182.862C220.675 215.372 194.321 241.727 161.81 241.727Z" fill="#CCCCCC"></path><path d="M182.703 225.867C165.437 225.867 151.44 206.613 151.44 182.862C151.44 159.111 165.437 139.857 182.703 139.857C199.969 139.857 213.965 159.111 213.965 182.862C213.965 206.613 199.969 225.867 182.703 225.867Z" fill="white"></path><path d="M193.066 205.698C188.247 205.698 184.341 199.553 184.341 191.973C184.341 184.393 188.247 178.248 193.066 178.248C197.884 178.248 201.791 184.393 201.791 191.973C201.791 199.553 197.884 205.698 193.066 205.698Z" fill="#425066"></path><path d="M46.1576 155.783C42.9572 155.783 40.3626 153.189 40.3626 149.988C40.3626 146.788 42.9572 144.193 46.1576 144.193C49.3581 144.193 51.9526 146.788 51.9526 149.988C51.9526 153.189 49.3581 155.783 46.1576 155.783Z" fill="#04B0EA"></path><path d="M113.097 103.08C108.381 103.08 104.557 99.2565 104.557 94.54C104.557 89.8235 108.381 86 113.097 86C117.814 86 121.637 89.8235 121.637 94.54C121.637 99.2565 117.814 103.08 113.097 103.08Z" fill="#04B0EA"></path><path d="M118.755 280.958C115.554 280.958 112.96 278.363 112.96 275.163C112.96 271.962 115.554 269.368 118.755 269.368C121.955 269.368 124.55 271.962 124.55 275.163C124.55 278.363 121.955 280.958 118.755 280.958Z" fill="#04B0EA"></path><path opacity="0.2" d="M297 1L192 192L318.5 367.5H583.5V1H297Z" fill="url(#paint0_linear_519_2242)"></path><circle cx="329" cy="73" r="37" fill="#F9F9F9"></circle><mask id="mask0_519_2242" style="mask-type:alpha" maskUnits="userSpaceOnUse" x="292" y="36" width="74" height="74"><circle cx="328.785" cy="72.7846" r="36.7846" fill="#445D77"></circle></mask><g mask="url(#mask0_519_2242)"><path d="M315.917 118.047L316.01 118.05L316.1 118.073L323.195 119.915C323.61 120.023 324.044 120.036 324.465 119.952C324.886 119.868 325.284 119.691 325.629 119.431C325.974 119.172 326.257 118.837 326.458 118.451C326.659 118.066 326.773 117.639 326.789 117.203C326.804 116.802 326.738 116.402 326.593 116.028C326.449 115.655 326.23 115.315 325.951 115.032C325.672 114.748 325.338 114.526 324.971 114.379C324.605 114.232 324.212 114.163 323.818 114.176L317.568 114.379L317.406 114.384L317.254 114.328L305.211 109.902L303.777 109.375L304.998 108.456L316.002 100.171L314.9 90.1616L293.902 107.179C293.596 107.428 293.343 107.738 293.16 108.09L292.421 107.707L293.16 108.09C292.977 108.442 292.868 108.83 292.84 109.227C292.792 109.896 292.976 110.56 293.359 111.105C293.741 111.65 294.298 112.043 294.933 112.219L295.104 112.266L295.24 112.379C300.209 116.472 307.533 117.784 315.917 118.047Z" fill="white" stroke="#49576B" stroke-width="1.6645"></path><mask id="path-12-inside-2_519_2242" fill="white"><path fill-rule="evenodd" clip-rule="evenodd" d="M324.207 71.6122C322.191 69.396 320.944 66.3336 320.944 62.9508C320.944 56.1877 325.928 50.7052 332.077 50.7052C338.225 50.7052 343.209 56.1877 343.209 62.9508C343.209 68.6998 339.607 73.5235 334.751 74.8408C333.401 78.0764 332.841 81.647 333.151 85.2155L318.718 78.9945C321.637 76.7451 323.48 74.2868 324.207 71.6122Z"></path></mask><path fill-rule="evenodd" clip-rule="evenodd" d="M324.207 71.6122C322.191 69.396 320.944 66.3336 320.944 62.9508C320.944 56.1877 325.928 50.7052 332.077 50.7052C338.225 50.7052 343.209 56.1877 343.209 62.9508C343.209 68.6998 339.607 73.5235 334.751 74.8408C333.401 78.0764 332.841 81.647 333.151 85.2155L318.718 78.9945C321.637 76.7451 323.48 74.2868 324.207 71.6122Z" fill="white"></path><path d="M324.207 71.6122L325.813 72.0488L326.053 71.1677L325.438 70.4922L324.207 71.6122ZM334.751 74.8408L334.315 73.2343L333.528 73.4477L333.215 74.2L334.751 74.8408ZM333.151 85.2155L332.493 86.7441L335.051 87.847L334.81 85.0711L333.151 85.2155ZM318.718 78.9945L317.702 77.676L315.46 79.403L318.059 80.5231L318.718 78.9945ZM325.438 70.4922C323.704 68.5856 322.609 65.9237 322.609 62.9508H319.28C319.28 66.7434 320.678 70.2063 322.976 72.7322L325.438 70.4922ZM322.609 62.9508C322.609 56.9542 326.993 52.3697 332.077 52.3697V49.0407C324.863 49.0407 319.28 55.4213 319.28 62.9508H322.609ZM332.077 52.3697C337.16 52.3697 341.544 56.9542 341.544 62.9508H344.873C344.873 55.4213 339.29 49.0407 332.077 49.0407V52.3697ZM341.544 62.9508C341.544 68.0278 338.372 72.1338 334.315 73.2343L335.187 76.4472C340.842 74.9131 344.873 69.3718 344.873 62.9508H341.544ZM334.81 85.0711C334.522 81.7693 335.041 78.4682 336.287 75.4815L333.215 74.2C331.761 77.6847 331.159 81.5247 331.493 85.36L334.81 85.0711ZM318.059 80.5231L332.493 86.7441L333.81 83.687L319.377 77.466L318.059 80.5231ZM322.601 71.1755C321.998 73.3943 320.434 75.5708 317.702 77.676L319.734 80.3131C322.841 77.9194 324.962 75.1793 325.813 72.0488L322.601 71.1755Z" fill="#49576B" mask="url(#path-12-inside-2_519_2242)"></path><path d="M315.912 106.096C327.806 107.094 334.311 105.438 344.322 99.349L340.555 90.1332C340.744 88.7456 340.565 87.3302 340.036 86.0426C339.508 84.755 338.651 83.6451 337.56 82.8349L333.649 79.9301L321.72 76.3096L321.184 76.3376C319.598 76.4208 318.094 77.1078 316.956 78.2698C315.817 79.4318 315.122 80.9892 315 82.6501C312.408 90.7702 312.392 98.6193 315.912 106.096Z" fill="#49576B"></path><path d="M318.576 125.292L345.443 122.429L347.433 114.159C351.844 107.774 349.919 101.925 344.779 96.3477C335.412 102.113 326.716 104.604 314.265 102.709C317.576 110.432 320.634 118.021 318.576 125.292Z" fill="#EBEDEF"></path><path d="M319.274 51.8184C317.122 51.8184 315.378 50.074 315.378 47.9221C315.378 45.7702 317.122 44.0258 319.274 44.0258C321.426 44.0258 323.17 45.7702 323.17 47.9221C323.17 50.074 321.426 51.8184 319.274 51.8184Z" fill="#49576B"></path><path d="M323.782 47.7054C323.717 46.7163 323.273 45.7888 322.538 45.1118C321.804 44.4349 320.836 44.0593 319.831 44.0617C319.912 44.0515 319.993 44.0391 320.076 44.0338C321.123 43.9675 322.153 44.3137 322.941 44.9964C323.728 45.6791 324.208 46.6423 324.276 47.6742C324.343 48.706 323.992 49.7219 323.299 50.4984C322.607 51.2749 321.63 51.7484 320.584 51.8148C320.501 51.8201 320.419 51.818 320.336 51.8181C321.334 51.6936 322.245 51.1989 322.885 50.4347C323.526 49.6706 323.846 48.6946 323.782 47.7054Z" fill="#49576B"></path><path d="M323.585 48.4806C326.984 45.4662 336.731 49.2973 337.36 51.3239C341.956 51.9935 345.435 54.8604 345.435 59.9578C342.703 61.1546 339.596 61.0071 336.237 59.9578C330.882 64.6236 330.515 70.4889 333.771 77.2258L329.765 77.3114L324.799 69.5511L324.562 77.4227L315.378 77.2258V65.9453C315.349 62.1947 316.156 58.4905 317.734 55.1404C319.165 52.1677 321.385 50.432 323.585 48.4806Z" fill="#49576B"></path><path d="M331.795 66.2904C331.795 66.7426 331.934 67.1199 332.118 67.3654C332.302 67.6107 332.492 67.6847 332.633 67.6847C332.773 67.6847 332.964 67.6107 333.148 67.3654C333.332 67.1199 333.47 66.7426 333.47 66.2904C333.47 65.8383 333.332 65.461 333.148 65.2154C332.964 64.9702 332.773 64.8962 332.633 64.8962C332.492 64.8962 332.302 64.9702 332.118 65.2154C331.934 65.461 331.795 65.8383 331.795 66.2904Z" fill="white" stroke="#49576B" stroke-width="1.6645"></path><path d="M345.331 158.423L345.438 158.627L345.424 158.856L344.776 170.217C344.742 170.827 344.842 171.436 345.069 172.001C345.295 172.566 345.644 173.072 346.087 173.483C346.531 173.893 347.058 174.198 347.632 174.376L347.385 175.171L347.632 174.376C348.205 174.554 348.81 174.6 349.403 174.512C349.979 174.426 350.354 174.23 350.608 173.995C350.863 173.757 351.049 173.429 351.161 172.992C351.394 172.083 351.277 170.835 350.936 169.457L348.274 158.685C341.71 134.877 339.942 111.523 340.273 88.7768L340.273 88.7744C340.285 88.1157 340.164 87.4617 339.919 86.8519C339.674 86.2421 339.309 85.6896 338.848 85.2273C338.387 84.7651 337.838 84.4027 337.236 84.1615L337.545 83.3889L337.236 84.1615C336.633 83.9205 335.989 83.8054 335.342 83.823C334.711 83.8416 334.09 83.9862 333.514 84.2488C332.937 84.5114 332.417 84.887 331.984 85.3545C331.551 85.822 331.212 86.3721 330.989 86.9734C330.766 87.5746 330.663 88.2148 330.685 88.8571L330.685 88.8573C331.609 115.469 335.447 139.525 345.331 158.423Z" fill="white" stroke="#49576B" stroke-width="1.6645"></path></g><circle cx="461.022" cy="119" r="37" fill="#F9F9F9"></circle><mask id="mask1_519_2242" style="mask-type:alpha" maskUnits="userSpaceOnUse" x="424" y="82" width="74" height="75"><circle cx="460.785" cy="119.251" r="36.7846" fill="#445D77"></circle></mask><g mask="url(#mask1_519_2242)"><path d="M425.243 184.939L425.241 184.936C424.888 184.417 424.654 183.827 424.554 183.208C424.455 182.589 424.492 181.955 424.664 181.352C424.836 180.749 425.138 180.191 425.549 179.717C425.96 179.243 426.47 178.865 427.043 178.609L427.237 178.523L427.31 178.323L445.705 127.649L453.943 132.142L432.894 180.672L432.814 180.856L432.884 181.044C433.25 182.035 433.239 183.126 432.854 184.11C432.469 185.094 431.736 185.903 430.795 186.383C429.853 186.863 428.767 186.982 427.744 186.715C426.721 186.449 425.831 185.817 425.243 184.939Z" fill="white" stroke="#49576B"></path><path d="M476.689 194.842C476.081 194.493 475.557 194.016 475.153 193.443C474.75 192.871 474.477 192.217 474.354 191.527C474.231 190.838 474.261 190.13 474.441 189.453C474.622 188.776 474.948 188.147 475.398 187.61L469.638 133.427L480.05 133.903L482.444 187.199C483.297 188.014 483.82 189.113 483.916 190.288C484.011 191.464 483.672 192.633 482.963 193.575C482.254 194.517 481.223 195.166 480.067 195.4C478.91 195.633 477.708 195.435 476.689 194.842Z" fill="#FFB8B8"></path><path d="M468.976 154.956L468.082 134.47C467.404 130.619 469.61 126.979 473.002 126.384C476.395 125.791 479.709 128.462 480.39 132.341L483.751 151.483L468.976 154.956Z" fill="#49576B"></path><path d="M470.536 107.829C470.536 113.601 465.854 118.281 460.077 118.281C454.301 118.281 449.619 113.601 449.619 107.829C449.619 102.057 454.301 97.3768 460.077 97.3768C465.854 97.3768 470.536 102.057 470.536 107.829Z" fill="white" stroke="#49576B"></path><path d="M476.619 182.519H443.582L443.621 182.262C443.681 181.878 449.509 143.717 445.21 131.233C444.779 130.006 444.817 128.663 445.317 127.463C445.817 126.262 446.743 125.289 447.918 124.73C454.063 121.838 465.858 118.277 475.813 126.919C477.278 128.212 478.421 129.827 479.154 131.638C479.886 133.449 480.187 135.405 480.033 137.352L476.619 182.519Z" fill="#E4E4E4"></path><path d="M449.927 149.357L435.053 146.341L442.025 129.828C442.442 128.229 443.477 126.861 444.903 126.023C446.328 125.185 448.028 124.947 449.629 125.36C451.23 125.773 452.602 126.804 453.444 128.227C454.285 129.649 454.528 131.348 454.119 132.949L449.927 149.357Z" fill="#49576B"></path><path d="M467.298 116.293C465.254 118.47 461.457 117.302 461.191 114.328C461.17 114.097 461.172 113.865 461.196 113.634C461.333 112.317 462.094 111.122 461.912 109.731C461.871 109.385 461.742 109.055 461.537 108.773C459.908 106.593 456.084 109.748 454.547 107.774C453.604 106.564 454.712 104.659 453.989 103.306C453.034 101.521 450.206 102.401 448.432 101.424C446.459 100.336 446.577 97.31 447.876 95.4695C449.46 93.225 452.237 92.0272 454.98 91.8546C457.723 91.682 460.447 92.4231 463.008 93.4204C465.917 94.5537 468.802 96.1198 470.593 98.6767C472.77 101.786 472.98 105.967 471.891 109.602C471.228 111.814 468.968 114.516 467.298 116.293Z" fill="#49576B"></path></g><circle cx="316" cy="221" r="37" fill="#F9F9F9"></circle><mask id="mask2_519_2242" style="mask-type:alpha" maskUnits="userSpaceOnUse" x="279" y="184" width="74" height="74"><circle cx="315.785" cy="220.82" r="36.7846" fill="#445D77"></circle></mask><g mask="url(#mask2_519_2242)"><path d="M323.637 208.478C323.637 213.925 319.217 218.342 313.764 218.342C308.311 218.342 303.891 213.925 303.891 208.478C303.891 203.031 308.311 198.614 313.764 198.614C319.217 198.614 323.637 203.031 323.637 208.478Z" fill="white" stroke="#49576B"></path><path d="M325.605 202.544C324.514 200.857 322.467 199.733 320.482 200.049C320.297 198.784 319.768 197.593 318.953 196.607C318.138 195.62 317.067 194.877 315.858 194.456C314.649 194.036 313.348 193.955 312.096 194.222C310.844 194.489 309.689 195.094 308.758 195.972C308.452 195.756 308.095 195.624 307.722 195.586C307.349 195.549 306.973 195.609 306.63 195.759C305.947 196.069 305.353 196.546 304.902 197.145C303.763 198.565 303.03 200.266 302.782 202.068C302.534 203.87 302.779 205.706 303.493 207.379C303.25 206.498 304.134 205.669 305.027 205.472C305.92 205.274 306.857 205.461 307.762 205.332C308.923 205.167 309.966 204.494 311.129 204.343C312.106 204.216 313.088 204.466 314.041 204.717C314.993 204.968 315.973 205.224 316.952 205.107C317.93 204.991 319.19 208.696 319.173 211.305C319.17 211.8 319.272 212.434 319.756 212.539C320.351 212.669 320.697 211.847 321.263 211.623C321.525 211.549 321.805 211.578 322.045 211.706C322.285 211.833 322.466 212.049 322.55 212.307C322.621 212.569 322.629 212.845 322.572 213.111C322.515 213.377 322.396 213.626 322.223 213.837C321.875 214.254 321.461 214.613 320.998 214.899L321.232 215.093C321.62 215.605 322.426 215.627 322.986 215.31C323.521 214.948 323.954 214.455 324.245 213.878C325.281 212.157 326.189 210.323 326.555 208.348C326.92 206.374 326.696 204.231 325.605 202.544Z" fill="#49576B"></path><path d="M322.81 224.911L319.586 220.451L309.174 220.868L308.974 224.302L302.057 289.573L308.85 289.421L317.282 291.388L333.499 285.717L322.81 224.911Z" fill="#49576B"></path><path d="M304.728 290.78H288.76L292.926 261.401L294.615 249.492C294.615 249.492 293.419 240.981 292.84 236.534C292.786 236.059 292.869 235.579 293.078 235.15C293.267 234.747 293.514 234.374 293.812 234.043C295.754 231.806 300.122 229.865 302.862 228.803C304.273 228.26 305.253 227.947 305.253 227.947L308.973 224.303C314.313 230.968 304.728 290.78 304.728 290.78Z" fill="#E4E4E4"></path><path d="M320.787 222.484L325.853 225.384C325.853 225.384 340.856 227.846 342.315 233.476L336.792 250.131V285.134L323.405 290.498C323.405 290.498 311.856 233.948 320.787 222.484Z" fill="#E4E4E4"></path><path d="M307.418 232.982L310.93 235.079L291.259 262.766L267.249 264.804L266.292 257.955L283.983 252.652L292.727 235.718L307.418 232.982Z" fill="#E4E4E4"></path><path d="M327.495 230.642L323.983 232.738L343.655 260.426L367.665 262.464L368.621 255.615L350.93 250.312L342.186 233.378L327.495 230.642Z" fill="#E4E4E4"></path></g><circle cx="441.061" cy="307" r="37" fill="#F9F9F9"></circle><mask id="mask3_519_2242" style="mask-type:alpha" maskUnits="userSpaceOnUse" x="404" y="270" width="74" height="74"><circle cx="440.785" cy="307.215" r="36.7846" fill="#445D77"></circle></mask><g mask="url(#mask3_519_2242)"><path d="M452.066 329.931L457.976 329.237L460.062 347.283L465.388 372.203C466.128 372.563 466.733 373.152 467.111 373.883C467.489 374.614 467.62 375.447 467.486 376.258C467.351 377.07 466.957 377.816 466.364 378.386C465.77 378.956 465.007 379.32 464.19 379.422C463.372 379.525 462.544 379.361 461.827 378.956C461.11 378.55 460.544 377.924 460.212 377.171C459.881 376.418 459.801 375.579 459.987 374.777C460.172 373.976 460.611 373.255 461.239 372.723L455.89 358.041L452.066 329.931Z" fill="#FFB6B6"></path><path d="M451.116 300.359L448.287 305.777L427.098 301.112L429.419 290.606C431.256 282.29 438.622 276.285 446.952 278.119C455.282 279.953 459.169 288.081 457.331 296.397L453.917 307.016L450.462 306.255L451.116 300.359Z" fill="#425066"></path><path d="M442.952 302.702C448.328 302.702 452.686 298.351 452.686 292.985C452.686 287.618 448.328 283.268 442.952 283.268C437.576 283.268 433.218 287.618 433.218 292.985C433.218 298.351 437.576 302.702 442.952 302.702Z" fill="white"></path><path d="M429.234 305.423C429.234 305.423 422.169 304.597 420.083 306.679L422.169 348.671C422.169 348.671 420.778 349.712 421.474 352.141C421.877 353.736 421.877 355.405 421.474 357C421.474 357 419.388 359.429 420.431 360.47C421.474 361.511 459.019 360.817 459.019 360.817C459.019 360.817 460.41 358.388 458.324 357C456.238 355.611 457.281 351.794 457.281 351.794C457.281 351.794 457.976 350.753 456.238 349.018C454.5 347.283 453.109 333.054 453.109 333.054L457.628 315.702C457.628 315.702 453.079 310.576 447.879 310.189L429.234 305.423Z" fill="#CCCCCC"></path><path d="M452.242 315.941L457.628 315.702C457.628 315.702 460.757 321.949 461.105 327.501L463.019 348.215L450.675 350.059L452.242 315.941Z" fill="#CCCCCC"></path><path d="M451.292 293.467L454.907 288.823C455.121 287.845 454.937 286.823 454.398 285.979C453.858 285.136 453.006 284.54 452.028 284.322L438.369 281.314C437.389 281.101 436.365 281.284 435.52 281.823C434.675 282.361 434.078 283.212 433.86 284.188L433.852 284.223L434.83 289.831L435.002 289.8C443.479 288.291 445.894 288.822 451.153 293.349L451.292 293.467Z" fill="#425066"></path><path d="M414.912 367.668L415.563 340.342L416.259 320.908L424.602 321.949L420.121 368.399C420.593 368.989 420.878 369.706 420.941 370.458C421.004 371.211 420.842 371.965 420.476 372.625C420.11 373.286 419.556 373.823 418.883 374.17C418.211 374.516 417.451 374.655 416.7 374.57C415.948 374.485 415.239 374.18 414.661 373.692C414.084 373.205 413.664 372.557 413.455 371.832C413.246 371.106 413.257 370.335 413.487 369.616C413.718 368.896 414.156 368.261 414.748 367.791C414.801 367.748 414.856 367.708 414.912 367.668Z" fill="#FFB6B6"></path><path d="M426.169 307.265L420.083 306.679C420.083 306.679 419.04 306.679 417.997 310.149C416.954 313.62 411.221 350.297 411.221 350.297L423.907 351.447L426.169 307.265Z" fill="#CCCCCC"></path></g><path d="M378.099 49.1078C380.362 49.1078 382.197 47.3164 382.197 45.1066C382.197 42.8968 380.362 41.1053 378.099 41.1053C375.835 41.1053 374 42.8968 374 45.1066C374 47.3164 375.835 49.1078 378.099 49.1078Z" fill="#CCCCCC"></path><path d="M410.956 43.7377H388.894C388.137 43.7377 387.521 43.1236 387.521 42.3688C387.521 41.6141 388.137 41 388.894 41H410.956C411.712 41 412.328 41.6141 412.328 42.3688C412.328 43.1236 411.712 43.7377 410.956 43.7377Z" fill="#CCCCCC"></path><path d="M428.172 48.3707H388.894C388.137 48.3707 387.521 47.7567 387.521 47.0019C387.521 46.2471 388.137 45.6331 388.894 45.6331H428.172C428.929 45.6331 429.545 46.2471 429.545 47.0019C429.545 47.7567 428.929 48.3707 428.172 48.3707Z" fill="#CCCCCC"></path><path d="M491.099 294.108C493.362 294.108 495.197 292.316 495.197 290.107C495.197 287.897 493.362 286.105 491.099 286.105C488.835 286.105 487 287.897 487 290.107C487 292.316 488.835 294.108 491.099 294.108Z" fill="#CCCCCC"></path><path d="M523.956 288.738H501.894C501.137 288.738 500.521 288.124 500.521 287.369C500.521 286.614 501.137 286 501.894 286H523.956C524.712 286 525.328 286.614 525.328 287.369C525.328 288.124 524.712 288.738 523.956 288.738Z" fill="#CCCCCC"></path><path d="M541.172 293.371H501.894C501.137 293.371 500.521 292.757 500.521 292.002C500.521 291.247 501.137 290.633 501.894 290.633H541.172C541.929 290.633 542.545 291.247 542.545 292.002C542.545 292.757 541.929 293.371 541.172 293.371Z" fill="#CCCCCC"></path><path d="M505.099 93.1078C507.362 93.1078 509.197 91.3164 509.197 89.1066C509.197 86.8968 507.362 85.1053 505.099 85.1053C502.835 85.1053 501 86.8968 501 89.1066C501 91.3164 502.835 93.1078 505.099 93.1078Z" fill="#CCCCCC"></path><path d="M537.956 87.7377H515.894C515.137 87.7377 514.521 87.1236 514.521 86.3688C514.521 85.6141 515.137 85 515.894 85H537.956C538.712 85 539.328 85.6141 539.328 86.3688C539.328 87.1236 538.712 87.7377 537.956 87.7377Z" fill="#CCCCCC"></path><path d="M555.172 92.3707H515.894C515.137 92.3707 514.521 91.7567 514.521 91.0019C514.521 90.2471 515.137 89.6331 515.894 89.6331H555.172C555.929 89.6331 556.545 90.2471 556.545 91.0019C556.545 91.7567 555.929 92.3707 555.172 92.3707Z" fill="#CCCCCC"></path><path d="M360.099 201.108C362.362 201.108 364.197 199.316 364.197 197.107C364.197 194.897 362.362 193.105 360.099 193.105C357.835 193.105 356 194.897 356 197.107C356 199.316 357.835 201.108 360.099 201.108Z" fill="#CCCCCC"></path><path d="M392.956 195.738H370.894C370.137 195.738 369.521 195.124 369.521 194.369C369.521 193.614 370.137 193 370.894 193H392.956C393.712 193 394.328 193.614 394.328 194.369C394.328 195.124 393.712 195.738 392.956 195.738Z" fill="#CCCCCC"></path><path d="M410.172 200.371H370.894C370.137 200.371 369.521 199.757 369.521 199.002C369.521 198.247 370.137 197.633 370.894 197.633H410.172C410.929 197.633 411.545 198.247 411.545 199.002C411.545 199.757 410.929 200.371 410.172 200.371Z" fill="#CCCCCC"></path><defs><linearGradient id="paint0_linear_519_2242" x1="149.5" y1="191" x2="584" y2="113.5" gradientUnits="userSpaceOnUse"><stop stop-color="#6ED7FB"></stop><stop offset="1" stop-color="white" stop-opacity="0"></stop></linearGradient></defs></svg>